<svg width="260" height="260" viewBox="0 0 260 260" fill="none" xmlns="http://www.w3.org/2000/svg">
<path opacity="0.1" d="M47.4448 224C93.6884 255.653 168.662 255.653 214.885 224C261.108 192.348 261.128 141.029 214.885 109.372C168.641 77.714 93.6728 77.7192 47.4448 109.372C1.21679 141.024 1.20119 192.348 47.4448 224Z" fill="#877ACE"/>
<path d="M176.587 230.797C189.568 230.797 200.091 224.259 200.091 216.195C200.091 208.131 189.568 201.594 176.587 201.594C163.606 201.594 153.083 208.131 153.083 216.195C153.083 224.259 163.606 230.797 176.587 230.797Z" fill="#EBEBEB"/>
<path d="M188.609 203.367C188.643 199.749 189.649 196.208 191.521 193.112C194.007 188.89 197.283 186.061 200.039 186.924C202.608 187.725 202.041 191.209 198.182 195C195.478 197.662 192.733 201.042 191.48 204.88L189.311 209.851L188.609 203.367Z" fill="#877ACE"/>
<path d="M188.609 203.367C188.643 199.749 189.649 196.208 191.521 193.112C194.007 188.89 197.283 186.061 200.039 186.924C202.608 187.725 202.041 191.209 198.182 195C195.478 197.662 192.733 201.042 191.48 204.88L189.311 209.851L188.609 203.367Z" fill="#877ACE"/>
<g opacity="0.1">
<path d="M188.609 203.367C188.643 199.749 189.649 196.208 191.521 193.112C194.007 188.89 197.283 186.061 200.039 186.924C202.608 187.725 202.041 191.209 198.182 195C195.478 197.662 192.733 201.042 191.48 204.88L189.311 209.851L188.609 203.367Z" fill="black"/>
</g>
<path d="M189.036 205.119C189.07 205.116 189.102 205.102 189.128 205.08C189.154 205.058 189.173 205.028 189.181 204.994C190.835 198.266 195.026 191.183 198.926 188.521C198.945 188.509 198.961 188.493 198.973 188.475C198.986 188.456 198.994 188.436 198.999 188.414C199.003 188.392 199.003 188.369 198.999 188.348C198.994 188.326 198.985 188.305 198.973 188.287C198.947 188.251 198.908 188.227 198.864 188.219C198.821 188.211 198.776 188.221 198.739 188.245C194.776 190.949 190.528 198.125 188.859 204.916C188.849 204.959 188.857 205.004 188.881 205.041C188.904 205.078 188.941 205.104 188.984 205.114C189 205.12 189.018 205.122 189.036 205.119Z" fill="white"/>
<path d="M188.583 210.995C189.885 212.149 191.466 212.941 193.17 213.294C196.108 213.938 197.496 212.597 197.496 212.597C197.496 212.597 196.498 209.747 194.86 208.868C196.657 209.384 198.354 210.201 199.878 211.286C199.878 211.286 201.687 211.422 202.571 208.686C202.571 208.686 201.599 206.96 198.052 205.847C199.849 205.629 201.673 205.824 203.382 206.419C203.616 206.523 204.838 203.013 205.239 201.386C205.639 199.758 204.979 199.732 203.715 199.306C202.452 198.879 198.089 198.411 197.241 199.066C196.394 199.722 195.842 202.119 195.842 202.119C195.459 201.309 195.31 200.409 195.411 199.519C194.53 199.209 193.576 199.174 192.676 199.42C191.199 199.836 191.251 200.548 191.188 201.599C191.12 202.655 191.202 203.716 191.433 204.75C191.433 204.75 190.486 203.83 190.642 200.647C190.642 200.647 188.594 202.207 187.725 203.59C186.857 204.974 186.831 208.744 188.583 210.995Z" fill="#877ACE"/>
<path d="M188.573 211.162C188.604 211.164 188.636 211.158 188.663 211.143C188.691 211.129 188.714 211.106 188.729 211.078C191.417 206.248 200.658 201.006 203.882 200.574C203.903 200.572 203.924 200.565 203.943 200.554C203.962 200.543 203.979 200.529 203.992 200.511C204.005 200.493 204.015 200.473 204.02 200.452C204.025 200.431 204.026 200.409 204.022 200.387C204.019 200.365 204.013 200.344 204.002 200.325C203.991 200.306 203.976 200.289 203.959 200.275C203.941 200.262 203.922 200.252 203.9 200.246C203.879 200.24 203.857 200.239 203.835 200.242C200.559 200.678 191.168 206.008 188.438 210.912C188.426 210.931 188.419 210.952 188.416 210.974C188.414 210.996 188.415 211.018 188.421 211.039C188.427 211.061 188.437 211.081 188.45 211.098C188.464 211.115 188.481 211.13 188.5 211.141C188.522 211.155 188.547 211.162 188.573 211.162Z" fill="white"/>
<path d="M83.5276 194.178L82.0404 193.32C81.4043 192.907 80.8749 192.349 80.4953 191.692C80.1158 191.035 79.8969 190.298 79.8564 189.54V56.3836C79.8973 55.6253 80.1164 54.8874 80.4958 54.2297C80.8753 53.5719 81.4045 53.0129 82.0404 52.598L142.069 17.94C142.747 17.5989 143.495 17.4212 144.253 17.4212C145.012 17.4212 145.76 17.5989 146.437 17.94L147.924 18.798C148.56 19.2129 149.09 19.7719 149.469 20.4297C149.848 21.0874 150.068 21.8253 150.108 22.5836V155.74C150.068 156.498 149.848 157.236 149.469 157.894C149.09 158.552 148.56 159.111 147.924 159.526L87.88 194.178C87.2052 194.519 86.4598 194.697 85.7038 194.697C84.9478 194.697 84.2024 194.519 83.5276 194.178Z" fill="#37474F"/>
<path d="M88.6392 58.9264L80.496 54.2464C80.1023 54.8975 79.8821 55.6387 79.8564 56.3992V189.54C79.8969 190.298 80.1158 191.035 80.4953 191.692C80.8749 192.349 81.4043 192.907 82.0404 193.32L83.5276 194.178C84.2044 194.522 84.9527 194.701 85.7116 194.701C86.4706 194.701 87.2188 194.522 87.8956 194.178L88.6392 193.752V58.9264Z" fill="#263238"/>
<path d="M85.7116 59.7636V192.92C85.7116 194.314 86.6892 194.875 87.8956 194.178L147.924 159.526C148.56 159.111 149.09 158.552 149.469 157.894C149.848 157.236 150.068 156.498 150.108 155.74V22.5836C150.108 21.19 149.131 20.6284 147.924 21.32L87.88 55.978C87.247 56.3947 86.7208 56.9544 86.3441 57.6121C85.9674 58.2697 85.7508 59.0067 85.7116 59.7636Z" fill="#455A64"/>
<path d="M90.5112 69.16L145.111 37.648C146.151 37.0552 146.983 37.5388 146.983 38.7296V142.574C146.946 143.222 146.757 143.853 146.432 144.416C146.107 144.978 145.655 145.457 145.111 145.813L90.5112 177.325C89.4712 177.923 88.6392 177.44 88.6392 176.244V72.4152C88.6742 71.7638 88.8618 71.1298 89.187 70.5643C89.5122 69.9989 89.9658 69.5178 90.5112 69.16Z" fill="white"/>
<path d="M117.91 42.1512C118.716 41.6832 119.371 42.0628 119.371 42.9988C119.343 43.5059 119.196 43.9993 118.943 44.4392C118.689 44.8791 118.335 45.2532 117.91 45.5312C117.099 45.9992 116.444 45.6196 116.444 44.6888C116.471 44.1802 116.618 43.6853 116.873 43.2444C117.128 42.8034 117.483 42.4288 117.91 42.1512Z" fill="#263238"/>
<path d="M113.682 49.4624C116.657 47.8192 121.961 44.6628 124.894 42.9364C125.414 42.6452 125.793 42.848 125.793 43.3888C125.771 43.6926 125.677 43.987 125.52 44.248C125.363 44.509 125.146 44.7295 124.888 44.8916L113.662 51.376C113.142 51.6672 112.752 51.4592 112.752 50.9184C112.778 50.6186 112.876 50.3297 113.038 50.0762C113.2 49.8227 113.421 49.6121 113.682 49.4624Z" fill="#263238"/>
<path d="M110.843 51.1004C111.301 50.8404 111.67 51.0536 111.67 51.5736C111.655 51.8596 111.572 52.1378 111.428 52.3855C111.284 52.6332 111.084 52.8433 110.843 52.9984C110.391 53.2636 110.022 53.0504 110.022 52.5252C110.038 52.24 110.12 51.9625 110.263 51.715C110.406 51.4675 110.604 51.257 110.843 51.1004Z" fill="#263238"/>
<path d="M118.43 164.954C120.333 163.857 121.872 164.746 121.872 166.946C121.809 168.142 121.464 169.306 120.866 170.343C120.268 171.38 119.433 172.262 118.43 172.916C116.527 174.013 114.982 173.124 114.982 170.924C115.048 169.728 115.394 168.565 115.993 167.528C116.592 166.49 117.427 165.609 118.43 164.954Z" fill="#263238"/>
<path d="M189.68 8.9076L187.751 7.8C187.566 7.71102 187.361 7.67418 187.156 7.69342C186.952 7.71266 186.757 7.78726 186.592 7.9092L139.079 35.3288C138.605 35.6385 138.211 36.0555 137.928 36.5461C137.645 37.0367 137.482 37.587 137.452 38.1524V128.528C137.432 128.726 137.464 128.926 137.544 129.108C137.624 129.29 137.75 129.449 137.909 129.568L139.833 130.681L186.571 102.029C187.045 101.72 187.439 101.302 187.722 100.812C188.005 100.321 188.168 99.771 188.198 99.2056L189.68 8.9076Z" fill="#877ACE"/>
<path d="M139.823 130.681L137.93 129.584C137.77 129.466 137.643 129.307 137.563 129.125C137.483 128.942 137.451 128.742 137.472 128.544V38.1524C137.493 37.5513 137.672 36.9663 137.992 36.4572L139.916 37.57C139.594 38.0782 139.415 38.6637 139.396 39.2652V129.646C139.375 129.841 139.403 130.037 139.478 130.218C139.552 130.399 139.671 130.558 139.823 130.681Z" fill="#877ACE"/>
<path opacity="0.3" d="M139.823 130.681L137.93 129.584C137.77 129.466 137.643 129.307 137.563 129.125C137.483 128.942 137.451 128.742 137.472 128.544V38.1524C137.493 37.5513 137.672 36.9663 137.992 36.4572L139.916 37.57C139.594 38.0782 139.415 38.6637 139.396 39.2652V129.646C139.375 129.841 139.403 130.037 139.478 130.218C139.552 130.399 139.671 130.558 139.823 130.681Z" fill="white"/>
<path d="M141.008 36.4468L188.521 9.01681C189.42 8.49681 190.148 8.91801 190.148 9.95801V100.36C190.118 100.925 189.955 101.476 189.672 101.966C189.389 102.457 188.995 102.874 188.521 103.184L141.014 130.614C140.109 131.134 139.381 130.712 139.381 129.672V39.2652C139.412 38.7006 139.575 38.1512 139.858 37.6615C140.141 37.1718 140.535 36.7557 141.008 36.4468Z" fill="#877ACE"/>
<path opacity="0.6" d="M141.008 36.4468L188.521 9.01681C189.42 8.49681 190.148 8.91801 190.148 9.95801V100.36C190.118 100.925 189.955 101.476 189.672 101.966C189.389 102.457 188.995 102.874 188.521 103.184L141.014 130.614C140.109 131.134 139.381 130.712 139.381 129.672V39.2652C139.412 38.7006 139.575 38.1512 139.858 37.6615C140.141 37.1718 140.535 36.7557 141.008 36.4468Z" fill="white"/>
<path d="M187.746 7.80001L189.608 8.8764C189.427 8.81005 189.234 8.78863 189.044 8.814C188.853 8.83937 188.672 8.91077 188.516 9.02201L141.003 36.4468C140.551 36.7259 140.174 37.1116 139.906 37.57L137.982 36.4572C138.249 35.9961 138.626 35.6084 139.079 35.3288L186.586 7.904C186.751 7.78129 186.947 7.70661 187.152 7.68826C187.356 7.6699 187.562 7.70858 187.746 7.80001Z" fill="#877ACE"/>
<path opacity="0.8" d="M187.746 7.80001L189.608 8.8764C189.427 8.81005 189.234 8.78863 189.044 8.814C188.853 8.83937 188.672 8.91077 188.516 9.02201L141.003 36.4468C140.551 36.7259 140.174 37.1116 139.906 37.57L137.982 36.4572C138.249 35.9961 138.626 35.6084 139.079 35.3288L186.586 7.904C186.751 7.78129 186.947 7.70661 187.152 7.68826C187.356 7.6699 187.562 7.70858 187.746 7.80001Z" fill="white"/>
<path d="M158.347 104.603C161.361 99.3827 161.36 93.7398 158.346 91.9994C155.332 90.2591 150.445 93.0803 147.431 98.3007C144.417 103.521 144.417 109.164 147.431 110.904C150.446 112.645 155.333 109.824 158.347 104.603Z" fill="#455A64"/>
<path d="M156.27 102.461L154.456 100.714L156.385 96.6368L154.695 95.0144L152.771 99.0912L150.956 97.3492L149.5 100.438L151.31 102.185L149.386 106.262L151.07 107.884L152.994 103.808L154.809 105.55L156.27 102.461Z" fill="white"/>
<path d="M183.424 90.1246C186.438 84.9041 186.438 79.2612 183.424 77.5209C180.409 75.7805 175.522 78.6017 172.508 83.8222C169.494 89.0426 169.494 94.6855 172.509 96.4259C175.523 98.1662 180.41 95.345 183.424 90.1246Z" fill="#455A64"/>
<path d="M182.91 82.68C182.939 82.389 182.897 82.0952 182.789 81.8237C182.68 81.5521 182.508 81.3108 182.286 81.12C181.834 80.7976 181.168 80.8132 180.435 81.2344C179.171 81.9624 178.131 84.1568 177.97 85.6596C177.814 84.3388 176.774 83.3456 175.51 84.0996C174.722 84.5941 174.082 85.2932 173.659 86.1224C173.273 86.8154 173.059 87.5913 173.035 88.3844C173.035 90.6464 174.85 91.8424 176.374 92.4456L177.975 93.0748L179.582 90.5944C181.095 88.2076 182.91 84.916 182.91 82.68Z" fill="white"/>
<path d="M158.933 113.558L157.108 114.613V112.039L158.933 110.984V113.558Z" fill="white"/>
<path d="M156.723 112.258L148.039 117.27V115.835L145.605 119.964L148.039 121.28V119.844L156.723 114.832V112.258Z" fill="white"/>
<path d="M160.16 112.845L159.318 113.334V110.765L160.16 110.271V112.845Z" fill="white"/>
<path d="M171.917 103.485L173.748 102.43V105.004L171.917 106.059V103.485Z" fill="white"/>
<path d="M174.127 104.785L182.811 99.7724V101.202L185.245 97.0788L182.811 95.7632V97.1984L174.127 102.211V104.785Z" fill="white"/>
<path d="M170.69 104.198L171.538 103.709V106.278L170.69 106.766V104.198Z" fill="white"/>
<path d="M146.401 39.468L184.449 17.5032C185.13 17.108 185.687 17.4252 185.687 18.2156V66.6484C185.664 67.077 185.54 67.4941 185.325 67.8656C185.11 68.237 184.81 68.5523 184.449 68.7856L146.401 90.714C145.72 91.1092 145.168 90.7868 145.168 90.0016V41.6C145.193 41.173 145.317 40.7577 145.531 40.3875C145.745 40.0172 146.043 39.7023 146.401 39.468Z" fill="white"/>
<mask id="mask0_61_1817" style="mask-type:luminance" maskUnits="userSpaceOnUse" x="145" y="17" width="41" height="74">
<path d="M146.401 39.468L184.449 17.5032C185.13 17.108 185.687 17.4252 185.687 18.2156V66.6484C185.664 67.077 185.54 67.4941 185.325 67.8656C185.11 68.237 184.81 68.5523 184.449 68.7856L146.401 90.714C145.72 91.1092 145.168 90.7868 145.168 90.0016V41.6C145.193 41.173 145.317 40.7577 145.531 40.3875C145.745 40.0172 146.043 39.7023 146.401 39.468Z" fill="white"/>
</mask>
<g mask="url(#mask0_61_1817)">
<path d="M172.988 59.9352C172.988 59.9352 175.978 59.0096 178.469 62.9408C180.164 65.6136 186.082 75.7588 186.082 75.7588C186.082 75.7588 197.6 69.68 198.24 68.8532C198.879 68.0264 198.848 66.4352 198.947 65.5616C199.108 64.1056 198.572 62.8524 198.5 62.3272C198.364 61.412 199.68 61.36 200.335 62.634C200.808 63.5596 200.855 64.6204 201.256 64.6308C201.836 64.2229 202.378 63.7615 202.873 63.2528C203.585 62.4728 204.875 61.1728 205.852 61.3496C206.019 61.3882 206.169 61.4757 206.285 61.6009C206.401 61.726 206.477 61.883 206.502 62.0516C206.53 62.589 206.654 63.1173 206.866 63.6116C207.025 63.7992 207.155 64.0095 207.251 64.2356C207.282 64.5711 207.282 64.9089 207.251 65.2444C207.293 65.728 207.771 65.9308 207.828 66.404C207.809 66.7685 207.767 67.1314 207.704 67.4908C207.704 67.7248 207.782 67.9276 207.776 68.1616C207.726 68.642 207.518 69.0921 207.184 69.4408C206.211 70.5769 205.057 71.5434 203.767 72.3008C202.727 72.9872 201.334 73.5956 200.127 74.2404C198.921 74.8852 185.38 85.28 183.56 84.0632C181.74 82.8464 172.697 69.6384 172.697 69.6384C170.638 63.8144 172.988 59.9352 172.988 59.9352Z" fill="#FFA8A7"/>
<path d="M167.736 60.0236C167.736 60.0236 171.033 58.6872 173.17 58.8276C175.308 58.968 176.894 59.5712 178.459 62.0932C180.539 65.4576 184.018 71.2712 184.018 71.2712C182.547 74.2939 180.201 76.8036 177.284 78.4732L170.903 68.8428L167.736 60.0236Z" fill="#455A64"/>
<path d="M157.279 65.8476C156.176 66.7314 155.363 67.9248 154.944 69.2744C154.457 70.9036 154.218 72.5971 154.237 74.2976V85.2436L154.097 105.96C161.044 108.326 169.874 106.241 177.284 98.0044C177.284 98.0044 176.873 71.4844 176.873 67.1528C176.873 66.9552 176.873 66.7576 176.873 66.5548C176.608 60.4136 171.304 57.564 166.083 60.5176L161.699 62.9928L157.295 65.8476H157.279Z" fill="#FAFAFA"/>
<path d="M162.032 43.3212C162.032 48.0012 165.313 50.8976 169.354 49.8108C173.394 48.724 176.68 44.0648 176.68 39.4108C176.68 34.7568 173.186 34.7308 169.14 35.8228C165.095 36.9148 162.032 38.6464 162.032 43.3212Z" fill="#263238"/>
<path d="M158.21 50.7104C158.21 50.7104 159.286 56.2744 159.723 57.122C159.853 57.3679 160.042 57.5772 160.274 57.7307C160.506 57.8843 160.772 57.9772 161.049 58.0008L160.971 53.9032L158.21 50.7104Z" fill="#263238"/>
<path d="M159.562 41.964C159.135 42.0325 158.728 42.1925 158.369 42.433C158.01 42.6736 157.708 42.989 157.482 43.3576C156.593 44.642 157.087 47.7932 158.194 50.7104L160.228 50.4348L159.562 41.964Z" fill="#263238"/>
<path d="M160.852 50.2736C160.446 50.6636 159.864 49.9148 159.359 49.4416C158.855 48.9684 157.217 48.5784 156.4 50.7884C155.584 52.9984 157.118 55.3072 158.413 55.432C160.638 55.64 160.971 53.9032 160.971 53.9032L161.049 63.4036C164.783 67.366 171.324 62.6964 168.386 60.944V58.1204C169.409 58.0318 170.418 57.8224 171.392 57.4964C173.025 56.7632 174.054 55.0004 174.554 52.8164C175.349 49.3168 175.656 46.5764 174.975 40.3C174.236 33.4152 167.097 35.256 163.244 39.0884C159.39 42.9208 160.852 50.2736 160.852 50.2736Z" fill="#FFA8A7"/>
<path d="M164.247 48.36C164.248 47.6535 164.467 46.9644 164.873 46.3865C165.28 45.8087 165.855 45.3702 166.52 45.1308L166.873 45.0372C168.126 44.6992 169.14 45.604 169.14 47.0496C169.14 48.4952 168.126 49.946 166.873 50.284L166.52 50.3776C165.266 50.7104 164.247 49.8056 164.247 48.36ZM166.52 45.5728C165.966 45.772 165.488 46.1371 165.15 46.6183C164.813 47.0995 164.632 47.6733 164.632 48.2612C164.632 49.4624 165.48 50.2112 166.52 49.9356L166.873 49.842C167.426 49.6422 167.904 49.2769 168.241 48.7958C168.579 48.3148 168.761 47.7414 168.761 47.1536C168.761 45.9524 167.913 45.1984 166.873 45.4792L166.52 45.5728Z" fill="#263238"/>
<path d="M171.174 46.5088C171.173 45.8014 171.392 45.1111 171.798 44.5323C172.205 43.9534 172.78 43.5141 173.446 43.2744L173.794 43.1808C175.048 42.848 176.067 43.7476 176.067 45.1932C176.067 46.6388 175.027 48.0896 173.794 48.4276L173.446 48.5212C172.193 48.88 171.174 47.9544 171.174 46.5088ZM173.446 43.7164C172.893 43.9162 172.415 44.2815 172.078 44.7626C171.74 45.2436 171.559 45.817 171.558 46.4048C171.558 47.606 172.406 48.3548 173.446 48.0792L173.794 47.9856C174.348 47.7864 174.826 47.4213 175.164 46.9401C175.501 46.4589 175.682 45.8851 175.682 45.2972C175.682 44.096 174.84 43.3472 173.794 43.6228L173.446 43.7164Z" fill="#263238"/>
<path d="M169.114 46.54C169.361 46.048 169.793 45.6741 170.316 45.5C170.486 45.4187 170.677 45.3915 170.863 45.4222C171.049 45.4529 171.221 45.5399 171.356 45.6716L171.662 45.3232C171.49 45.1408 171.265 45.0174 171.018 44.9707C170.772 44.924 170.517 44.9564 170.29 45.0632C169.963 45.1726 169.662 45.3457 169.403 45.5724C169.144 45.7992 168.933 46.075 168.782 46.384L169.114 46.54Z" fill="#263238"/>
<path d="M159.63 49.504L164.46 48.2092V47.7672L159.63 49.062V49.504Z" fill="#263238"/>
<path d="M160.852 51.064C160.649 51.1264 159.869 49.842 159.359 49.4416C158.657 48.8904 159.562 41.964 159.562 41.964C158.751 40.1752 160.248 37.4764 161.819 36.3792C162.941 35.6567 164.209 35.1914 165.532 35.0168C166.655 34.8088 167.778 34.6528 168.891 34.5488C170.257 34.4771 171.618 34.3138 172.962 34.06C174.116 33.8142 175.209 33.3442 176.181 32.6768C176.509 32.448 176.842 32.6768 176.738 33.1136C176.643 33.4719 176.514 33.8202 176.353 34.1536C176.065 34.8281 175.702 35.4682 175.271 36.062C174.795 36.682 174.274 37.266 173.711 37.8092C170.7 40.6588 166.894 41.4492 163.54 41.808C162.786 41.8912 162.625 42.7804 162.214 45.1984C161.84 47.346 161.538 50.8664 160.852 51.064Z" fill="#263238"/>
<path d="M159.567 42.4788L157.102 41.6C157.451 40.69 158.288 40.144 158.969 40.3832C159.65 40.6224 159.916 41.6 159.567 42.4788Z" fill="#263238"/>
<path d="M168.376 58.1204C168.376 58.1204 164.736 58.2504 163.446 57.8084C162.676 57.5397 162.041 56.9796 161.678 56.2484C161.854 57.0171 162.197 57.7378 162.682 58.3596C163.618 59.488 168.376 59.228 168.376 59.228V58.1204Z" fill="#F28F8F"/>
<path d="M167.502 47.4344C167.506 47.6676 167.438 47.8963 167.307 48.0891C167.175 48.2818 166.988 48.4291 166.769 48.5108C166.364 48.6148 166.036 48.308 166.036 47.8244C166.032 47.5919 166.101 47.364 166.232 47.1722C166.364 46.9803 166.551 46.8339 166.769 46.7532C167.175 46.644 167.502 46.9508 167.502 47.4344Z" fill="#263238"/>
<path d="M166.322 44.252L164.762 45.6716C164.654 45.4058 164.631 45.1132 164.696 44.8338C164.762 44.5545 164.912 44.3022 165.126 44.1116C165.202 44.0195 165.301 43.9479 165.412 43.9034C165.523 43.8589 165.643 43.8429 165.762 43.8568C165.881 43.8708 165.995 43.9143 166.092 43.9833C166.19 44.0523 166.269 44.1447 166.322 44.252Z" fill="#263238"/>
<path d="M168.048 53.1336L169.718 53.4092C169.67 53.6745 169.53 53.9144 169.322 54.0866C169.115 54.2588 168.854 54.3522 168.584 54.3504C168.121 54.2776 167.882 53.7316 168.048 53.1336Z" fill="#F28F8F"/>
<path d="M174.2 42.8792L172.775 41.99C173.066 41.47 173.623 41.1944 174.018 41.4388C174.217 41.6167 174.344 41.8604 174.378 42.125C174.411 42.3896 174.348 42.6574 174.2 42.8792Z" fill="#263238"/>
<path d="M173.592 45.5624C173.596 45.7956 173.527 46.0243 173.396 46.2171C173.265 46.4098 173.077 46.5572 172.858 46.6388C172.453 46.7428 172.125 46.436 172.125 45.9524C172.122 45.7199 172.19 45.492 172.321 45.3002C172.453 45.1083 172.64 44.9619 172.858 44.8812C173.264 44.772 173.592 45.0788 173.592 45.5624Z" fill="#263238"/>
<path d="M169.972 45.8536L170.056 50.96L172.682 49.5872L169.972 45.8536Z" fill="#F28F8F"/>
<path d="M146.947 97.1672C148.507 76.0656 151.627 68.4996 156.749 66.2792C158.522 67.6052 158.954 73.8088 157.097 78.52C157.097 78.52 153.104 92.586 152.875 97.37C152.762 101.819 153.037 106.27 153.696 110.672C153.728 110.937 153.816 111.192 153.955 111.42C154.094 111.648 154.281 111.843 154.502 111.992C155.626 112.726 155.542 113.786 156.359 114.795C156.988 115.58 157.576 115.721 157.456 116.012C157.333 116.311 157.111 116.558 156.827 116.712C156.542 116.865 156.213 116.916 155.896 116.854C155.393 116.694 154.924 116.441 154.513 116.111C154.838 117.217 155.327 118.269 155.964 119.231C157.43 121.467 157.357 122.97 153.925 123.479C151.778 123.796 150.212 122.439 149.131 117.073C148.819 115.513 148.091 112.726 147.779 110.713C146.9 104.952 146.697 100.568 146.947 97.1672Z" fill="#FFA8A7"/>
<path d="M158.21 65.2444C158.21 65.2444 154.466 66.5548 152.573 69.6228C150.68 72.6908 148.876 77.6204 147.612 86.3824C147.612 86.3824 149.984 89.622 156.161 86.9024C156.161 86.9024 158.855 75.7276 159.094 71.3024C159.354 66.5132 158.21 65.2444 158.21 65.2444Z" fill="#455A64"/>
</g>
<path d="M49.4884 182.837L47.5956 181.74C47.4361 181.621 47.3102 181.462 47.23 181.28C47.1498 181.098 47.1181 180.898 47.138 180.7V90.3032C47.1598 89.7039 47.3391 89.121 47.658 88.6132L49.5872 89.726C49.263 90.2333 49.0833 90.8194 49.0672 91.4212V181.797C49.0456 181.992 49.0728 182.189 49.1463 182.37C49.2199 182.552 49.3374 182.712 49.4884 182.837Z" fill="#877ACE"/>
<path opacity="0.3" d="M49.4884 182.837L47.5956 181.74C47.4361 181.621 47.3102 181.462 47.23 181.28C47.1498 181.098 47.1181 180.898 47.138 180.7V90.3032C47.1598 89.7039 47.3391 89.121 47.658 88.6132L49.5872 89.726C49.263 90.2333 49.0833 90.8194 49.0672 91.4212V181.797C49.0456 181.992 49.0728 182.189 49.1463 182.37C49.2199 182.552 49.3374 182.712 49.4884 182.837Z" fill="white"/>
<path d="M50.674 88.5976L98.1864 61.1676C99.086 60.6476 99.814 61.074 99.814 62.1088V152.49C99.7836 153.055 99.6204 153.606 99.3376 154.096C99.0549 154.587 98.6604 155.004 98.1864 155.314L50.6792 182.738C49.7796 183.258 49.0464 182.837 49.0464 181.797V91.4212C49.0768 90.8558 49.24 90.3055 49.5227 89.8149C49.8055 89.3243 50.1999 88.9073 50.674 88.5976Z" fill="#877ACE"/>
<path opacity="0.6" d="M50.674 88.5976L98.1864 61.1676C99.086 60.6476 99.814 61.074 99.814 62.1088V152.49C99.7836 153.055 99.6204 153.606 99.3376 154.096C99.0549 154.587 98.6604 155.004 98.1864 155.314L50.6792 182.738C49.7796 183.258 49.0464 182.837 49.0464 181.797V91.4212C49.0768 90.8558 49.24 90.3055 49.5227 89.8149C49.8055 89.3243 50.1999 88.9073 50.674 88.5976Z" fill="white"/>
<path d="M97.4116 59.9456L99.2732 61.022C99.0933 60.9562 98.8998 60.936 98.7102 60.9632C98.5205 60.9904 98.3406 61.0642 98.1864 61.178L50.674 88.5976C50.2167 88.874 49.8373 89.2623 49.5716 89.726L47.6476 88.6132C47.9128 88.1495 48.29 87.7597 48.7448 87.4796L96.252 60.0548C96.4174 59.9332 96.6128 59.8592 96.8173 59.8408C97.0217 59.8225 97.2273 59.8605 97.4116 59.9508V59.9456Z" fill="#877ACE"/>
<path opacity="0.8" d="M97.4116 59.9456L99.2732 61.022C99.0933 60.9562 98.8998 60.936 98.7102 60.9632C98.5205 60.9904 98.3406 61.0642 98.1864 61.178L50.674 88.5976C50.2167 88.874 49.8373 89.2623 49.5716 89.726L47.6476 88.6132C47.9128 88.1495 48.29 87.7597 48.7448 87.4796L96.252 60.0548C96.4174 59.9332 96.6128 59.8592 96.8173 59.8408C97.0217 59.8225 97.2273 59.8605 97.4116 59.9508V59.9456Z" fill="white"/>
<path d="M68.009 156.754C71.023 151.534 71.0227 145.891 68.0083 144.151C64.994 142.41 60.1069 145.232 57.0929 150.452C54.0789 155.672 54.0792 161.315 57.0935 163.056C60.1079 164.796 64.9949 161.975 68.009 156.754Z" fill="#455A64"/>
<path d="M65.936 154.612L64.1212 152.87L66.0504 148.793L64.3604 147.17L62.4364 151.247L60.6216 149.5L59.1656 152.594L60.9752 154.336L59.0512 158.413L60.736 160.035L62.66 155.958L64.4748 157.706L65.936 154.612Z" fill="white"/>
<path d="M93.0944 142.271C96.1084 137.051 96.1082 131.408 93.0938 129.668C90.0794 127.927 85.1924 130.748 82.1783 135.969C79.1643 141.189 79.1646 146.832 82.179 148.573C85.1934 150.313 90.0804 147.492 93.0944 142.271Z" fill="#455A64"/>
<path d="M92.56 134.805C92.586 134.518 92.5429 134.229 92.4344 133.962C92.3258 133.695 92.1549 133.458 91.936 133.271C91.4836 132.948 90.818 132.959 90.0848 133.385C88.8212 134.108 87.7812 136.308 87.6252 137.805C87.464 136.49 86.424 135.496 85.1604 136.245C84.3735 136.742 83.7342 137.44 83.3092 138.268C82.9228 138.959 82.7087 139.733 82.6852 140.525C82.6852 142.787 84.5 143.983 86.0236 144.586L87.6304 145.22L89.232 142.735C90.7608 140.364 92.56 137.067 92.56 134.805Z" fill="white"/>
<path d="M68.5984 165.708L66.7732 166.764V164.19L68.5984 163.134V165.708Z" fill="white"/>
<path d="M66.3884 164.414L57.7096 169.426V167.991L55.2708 172.12L57.7096 173.43V171.995L66.3884 166.982V164.414Z" fill="white"/>
<path d="M69.8256 165.001L68.9832 165.49V162.916L69.8256 162.427V165.001Z" fill="white"/>
<path d="M81.5828 155.641L83.4132 154.58V157.154L81.5828 158.21V155.641Z" fill="white"/>
<path d="M83.7928 156.936L92.4768 151.923V153.358L94.9104 149.23L92.4768 147.914V149.349L83.7928 154.362V156.936Z" fill="white"/>
<path d="M80.3556 156.348L81.2032 155.86V158.434L80.3556 158.922V156.348Z" fill="white"/>
<path d="M56.0664 91.624L94.12 69.68C94.8064 69.2848 95.3576 69.6072 95.3576 70.3924V118.83C95.3334 119.259 95.2087 119.675 94.9937 120.047C94.7788 120.418 94.4794 120.733 94.12 120.968L56.0716 142.896C55.3904 143.286 54.8392 142.969 54.8392 142.178V93.7612C54.8614 93.3336 54.9842 92.9172 55.1974 92.5459C55.4106 92.1746 55.7083 91.8587 56.0664 91.624Z" fill="white"/>
<mask id="mask1_61_1817" style="mask-type:luminance" maskUnits="userSpaceOnUse" x="54" y="69" width="42" height="75">
<path d="M56.0664 91.624L94.12 69.68C94.8064 69.2848 95.3576 69.6072 95.3576 70.3924V118.83C95.3334 119.259 95.2087 119.675 94.9937 120.047C94.7788 120.418 94.4794 120.733 94.12 120.968L56.0716 142.896C55.3904 143.286 54.8392 142.969 54.8392 142.178V93.7612C54.8614 93.3336 54.9842 92.9172 55.1974 92.5459C55.4106 92.1746 55.7083 91.8587 56.0664 91.624Z" fill="white"/>
</mask>
<g mask="url(#mask1_61_1817)">
<path d="M86.32 140.187C81.7336 120.063 76.2164 116.412 81.12 112.226C86.84 111.353 89.0292 113.147 89.908 119.044C90.3396 121.924 91.2704 133.988 92.4404 138.497C93.4804 142.459 94.8532 147.363 96.3924 150.197C96.5183 150.434 96.6991 150.639 96.9198 150.792C97.1404 150.946 97.3946 151.045 97.6612 151.081C99.0964 151.284 99.5176 152.09 100.688 152.688C101.598 153.15 102.274 153.031 102.248 153.353C102.18 153.71 102.005 154.037 101.747 154.293C101.489 154.548 101.159 154.719 100.802 154.783C100.229 154.842 99.6509 154.803 99.0912 154.669C99.7798 155.576 100.625 156.353 101.587 156.962C103.834 158.413 104.187 159.832 100.641 161.73C98.41 162.921 96.3196 162.339 93.5532 157.815C92.4824 156.144 91.5485 154.389 90.7608 152.568C88.842 147.68 87.0844 143.421 86.32 140.187Z" fill="#B16668"/>
<path d="M89.2164 107.817L74.2196 111.836C70.6576 112.793 67.7664 110.23 67.7664 106.116V100.318C67.7664 93.7248 72.3944 87.1416 78.104 85.6128L78.8788 85.4048C84.5988 83.876 89.2164 87.9788 89.2164 94.5724V107.817Z" fill="#263238"/>
<path d="M71.24 90.818C71.8484 90.0068 71.89 88.894 71.3284 88.3428C70.7668 87.7916 69.8152 87.9944 69.2016 88.8056L71.24 90.818Z" fill="#263238"/>
<path d="M71.3336 90.9428C71.3114 90.7468 71.24 90.5596 71.1261 90.3986C71.0122 90.2376 70.8594 90.108 70.6819 90.0218C70.5045 89.9357 70.3081 89.8958 70.1112 89.9059C69.9142 89.916 69.7229 89.9758 69.5552 90.0796C69.1443 90.311 68.8131 90.6613 68.6052 91.0846C68.3973 91.5079 68.3224 91.9841 68.3904 92.4508L71.3336 90.9428Z" fill="#263238"/>
<path d="M74.2716 114.291C74.2716 114.291 68.0316 115.768 67.2568 116.371C71.7912 121.228 68.0836 131.487 68.0836 131.487L70.6004 140.249C68.3828 143.951 66.6475 147.921 65.4368 152.064C63.934 157.04 62.972 160.784 61.7968 175.77C67.7456 180.508 87.5628 175.328 92.6016 166.353C92.6016 166.353 91.0416 156.525 89.05 147.399C87.5836 140.738 86.138 137.134 86.4968 134.732C89.1488 124.582 89.3568 122.054 88.8888 120.073C87.5628 114.504 82.3316 111.899 81.042 112.247L74.2716 114.291Z" fill="#37474F"/>
<path d="M85.176 89.076C86.3096 89.544 87.7136 92.456 87.5732 99.3928C87.4536 105.269 85.8156 107.151 84.9732 107.791C84.1308 108.43 82.5656 108.597 81.016 108.716V112.221C81.016 112.221 83.1532 114.514 83.018 116.158C82.8828 117.801 79.9344 118.971 77.9376 117.936C75.9408 116.901 74.256 114.296 74.256 114.296L74.2924 106.22C74.2924 106.22 73.3824 107.484 71.8432 106.34C71.1956 105.823 70.7639 105.083 70.6322 104.265C70.5005 103.447 70.6782 102.609 71.1308 101.915C72.124 100.485 73.9544 100.313 74.6616 101.78C74.6616 101.78 75.5196 98.8 79.0764 96.5016C82.3056 94.4216 84.0528 92.56 85.176 89.076Z" fill="#B16668"/>
<path d="M81.9208 99.4396C81.931 99.6418 81.8786 99.8422 81.7706 100.013C81.6627 100.185 81.5045 100.318 81.3176 100.396C80.9692 100.511 80.6676 100.266 80.652 99.8452C80.6413 99.6436 80.693 99.4436 80.8 99.2724C80.907 99.1012 81.0641 98.9671 81.25 98.8884C81.6036 98.8 81.9052 99.0236 81.9208 99.4396Z" fill="#263238"/>
<path d="M82.0924 104.348L83.5692 104.494C83.5319 104.727 83.4163 104.941 83.2415 105.1C83.0666 105.258 82.8429 105.353 82.6072 105.368C82.2016 105.326 81.9676 104.868 82.0924 104.348Z" fill="#9A4A4D"/>
<path d="M87.1416 95.784L85.852 95.0976C86.086 94.6088 86.5644 94.3644 86.9232 94.5776C87.0996 94.7181 87.2189 94.9179 87.2591 95.1398C87.2993 95.3616 87.2575 95.5906 87.1416 95.784Z" fill="#263238"/>
<path d="M80.08 98.2228L81.3696 96.8448C81.1304 96.4808 80.652 96.4964 80.2984 96.876C80.1271 97.0503 80.014 97.2734 79.9749 97.5146C79.9358 97.7559 79.9725 98.0033 80.08 98.2228Z" fill="#263238"/>
<path d="M86.84 97.5884C86.848 97.7902 86.7947 97.9896 86.687 98.1604C86.5793 98.3313 86.4223 98.4654 86.2368 98.5452C85.8832 98.6596 85.5868 98.4152 85.566 98.0252C85.5577 97.8227 85.6108 97.6224 85.7185 97.4507C85.8261 97.279 85.9833 97.1439 86.1692 97.0632C86.528 96.9228 86.84 97.1724 86.84 97.5884Z" fill="#263238"/>
<path d="M83.8396 97.9732L83.9436 102.367L85.9612 101.109L83.8396 97.9732Z" fill="#9A4A4D"/>
<path d="M81.0316 108.716C79.404 108.904 76.0552 108.716 75.5352 107.302C75.7177 107.971 76.1349 108.553 76.7104 108.94C77.7088 109.658 81.0316 109.886 81.0316 109.886V108.716Z" fill="#9A4A4D"/>
<path d="M69.3836 136.011L73.9596 141.83L70.6004 140.244L69.3836 136.011Z" fill="#263238"/>
<path d="M56.4616 147.789C60.3356 128.456 63.0188 119.324 67.2568 116.366C69.3836 116.579 70.0284 119.408 70.252 121.02C70.6576 123.921 69.966 127.967 68.0836 131.482C68.0836 131.482 62.8004 144.43 61.9008 149.573C61.1104 154.071 60.216 159.702 60.2628 163.384C60.2499 163.989 60.4738 164.575 60.8868 165.017C61.9268 166.057 61.9268 167.097 62.5976 168.329C63.1176 169.307 63.6948 169.572 63.5336 169.889C63.3768 170.184 63.115 170.409 62.8 170.52C62.4851 170.631 62.14 170.619 61.8332 170.487C61.3438 170.206 60.9087 169.84 60.5488 169.406C60.724 170.678 61.074 171.921 61.5888 173.098C62.7536 175.812 62.4676 177.429 58.9316 177.299C56.7216 177.216 55.328 175.458 54.9952 169.4C54.8356 167.142 54.8165 164.875 54.938 162.614C55.3904 156.64 55.7336 151.424 56.4616 147.789Z" fill="#B16668"/>
</g>
<path opacity="0.1" d="M87.3236 161.585L98.1864 155.314C98.6605 155.004 99.0549 154.587 99.3377 154.096C99.6204 153.606 99.7836 153.055 99.814 152.49V62.1088C99.814 61.0688 99.086 60.6528 98.1864 61.1676L87.3236 67.444V161.585Z" fill="black"/>
<path d="M87.3236 67.444L98.1812 61.1728C98.3372 61.0607 98.5182 60.9884 98.7085 60.9621C98.8988 60.9358 99.0927 60.9564 99.2732 61.022L97.4116 59.9456C97.2273 59.8553 97.0217 59.8173 96.8173 59.8356C96.6128 59.854 96.4173 59.928 96.252 60.0496L85.3944 66.326L87.3236 67.444Z" fill="#877ACE"/>
<path opacity="0.5" d="M87.3236 67.444L98.1812 61.1728C98.3372 61.0607 98.5182 60.9884 98.7085 60.9621C98.8988 60.9358 99.0927 60.9564 99.2732 61.022L97.4116 59.9456C97.2273 59.8553 97.0217 59.8173 96.8173 59.8356C96.6128 59.854 96.4173 59.928 96.252 60.0496L85.3944 66.326L87.3236 67.444Z" fill="white"/>
<path d="M148.2 46.2176L146.271 45.0996C146.086 45.011 145.881 44.9739 145.677 44.9922C145.473 45.0105 145.277 45.0835 145.111 45.2036L97.5988 72.6336C97.1251 72.9425 96.7309 73.3586 96.4481 73.8483C96.1654 74.3379 96.002 74.8874 95.9712 75.452V165.838C95.9508 166.037 95.9822 166.237 96.0625 166.419C96.1427 166.601 96.2689 166.76 96.4288 166.878L98.3528 167.991L145.106 139.36C145.58 139.051 145.974 138.635 146.257 138.145C146.539 137.656 146.703 137.106 146.734 136.542L148.2 46.2176Z" fill="#877ACE"/>
<path opacity="0.1" d="M98.3372 167.991L96.4444 166.92C96.2845 166.801 96.1583 166.643 96.0781 166.461C95.9978 166.278 95.9664 166.078 95.9868 165.88V75.4572C96.0061 74.8575 96.1856 74.274 96.5068 73.7672L98.4308 74.88C98.1085 75.3882 97.9289 75.9737 97.9108 76.5752V166.956C97.8902 167.151 97.9184 167.347 97.9929 167.528C98.0673 167.708 98.1857 167.868 98.3372 167.991Z" fill="black"/>
<path opacity="0.5" d="M146.26 45.0996L148.122 46.176C147.941 46.1104 147.748 46.0898 147.557 46.1161C147.367 46.1424 147.186 46.2147 147.03 46.3268L99.5176 73.7516C99.0653 74.0327 98.6887 74.42 98.4204 74.88L96.4964 73.7672C96.7617 73.305 97.139 72.917 97.5936 72.6388L145.08 45.2088C145.245 45.0872 145.441 45.0132 145.645 44.9948C145.85 44.9765 146.055 45.0145 146.24 45.1048L146.26 45.0996Z" fill="white"/>
<path d="M116.855 141.909C119.869 136.688 119.869 131.045 116.854 129.305C113.84 127.565 108.953 130.386 105.939 135.606C102.925 140.827 102.925 146.47 105.94 148.21C108.954 149.95 113.841 147.129 116.855 141.909Z" fill="#455A64"/>
<path d="M114.785 139.766L112.97 138.024L114.899 133.947L113.209 132.324L111.285 136.401L109.47 134.654L108.014 137.748L109.824 139.49L107.9 143.567L109.585 145.189L111.509 141.118L113.324 142.86L114.785 139.766Z" fill="white"/>
<path d="M141.938 127.43C144.952 122.21 144.952 116.567 141.937 114.826C138.923 113.086 134.036 115.907 131.022 121.128C128.008 126.348 128.008 131.991 131.023 133.731C134.037 135.472 138.924 132.651 141.938 127.43Z" fill="#455A64"/>
<path d="M141.44 119.959C141.466 119.672 141.423 119.383 141.314 119.116C141.206 118.849 141.035 118.612 140.816 118.425C140.53 118.261 140.202 118.184 139.873 118.204C139.544 118.225 139.228 118.341 138.965 118.539C137.701 119.262 136.661 121.462 136.5 122.959C136.344 121.644 135.304 120.65 134.04 121.399C133.253 121.897 132.613 122.598 132.189 123.427C131.803 124.118 131.589 124.893 131.565 125.684C131.565 127.946 133.38 129.142 134.904 129.75L136.505 130.38L138.112 127.894C139.61 125.518 141.44 122.226 141.44 119.959Z" fill="white"/>
<path d="M117.447 150.862L115.622 151.918V149.344L117.447 148.288V150.862Z" fill="white"/>
<path d="M115.237 149.568L106.553 154.58V153.145L104.12 157.274L106.553 158.584V157.149L115.237 152.136V149.568Z" fill="white"/>
<path d="M118.674 150.155L117.827 150.644V148.07L118.674 147.581V150.155Z" fill="white"/>
<path d="M130.432 140.795L132.257 139.74V142.308L130.432 143.364V140.795Z" fill="white"/>
<path d="M132.642 142.09L141.326 137.077V138.512L143.759 134.384L141.326 133.073V134.503L132.642 139.516V142.09Z" fill="white"/>
<path d="M129.204 141.502L130.052 141.014V143.588L129.204 144.076V141.502Z" fill="white"/>
<path d="M104.915 76.778L142.964 54.808C143.645 54.4128 144.201 54.7352 144.201 55.5204V103.958C144.177 104.387 144.052 104.803 143.837 105.175C143.622 105.546 143.323 105.861 142.964 106.096L104.915 128.024C104.234 128.414 103.678 128.097 103.678 127.312V78.9152C103.702 78.4869 103.826 78.0702 104.041 77.699C104.256 77.3277 104.556 77.0122 104.915 76.778Z" fill="white"/>
<mask id="mask2_61_1817" style="mask-type:luminance" maskUnits="userSpaceOnUse" x="103" y="54" width="42" height="75">
<path d="M104.915 76.778L142.964 54.808C143.645 54.4128 144.201 54.7352 144.201 55.5204V103.958C144.177 104.387 144.052 104.803 143.837 105.175C143.622 105.546 143.323 105.861 142.964 106.096L104.915 128.024C104.234 128.414 103.678 128.097 103.678 127.312V78.9152C103.702 78.4869 103.826 78.0702 104.041 77.699C104.256 77.3277 104.556 77.0122 104.915 76.778Z" fill="white"/>
</mask>
<g mask="url(#mask2_61_1817)">
<path d="M134.316 126.719C130.047 107.999 125.164 104.686 129.724 100.786C134.404 99.0028 136.838 101.551 137.654 107.026C138.055 109.71 138.923 120.936 140.015 125.133C140.972 128.82 142.262 133.385 143.692 136.022C143.808 136.243 143.976 136.434 144.181 136.577C144.387 136.72 144.624 136.811 144.872 136.843C146.208 137.036 146.598 137.79 147.685 138.341C148.538 138.772 149.167 138.663 149.126 138.965C149.062 139.296 148.899 139.601 148.659 139.838C148.418 140.074 148.111 140.232 147.779 140.291C147.246 140.349 146.708 140.314 146.188 140.187C146.828 141.031 147.616 141.753 148.512 142.319C150.592 143.671 150.946 144.992 147.628 146.76C145.548 147.867 143.608 147.326 141.034 143.12C140.036 141.566 139.167 139.932 138.434 138.237C136.646 133.687 135.008 129.735 134.316 126.719Z" fill="#FFA8A7"/>
<path d="M122.2 103.048C117.556 104.66 117.234 107.333 116.069 110.474C115.223 112.708 115.146 115.16 115.851 117.442L119.106 127.4C117.796 130.348 116.703 133.388 115.835 136.495C123.952 139.552 134.087 134.087 136.526 129.615C136.63 128.778 136.006 122.616 135.616 118.586C137.046 114.062 137.42 111.337 136.817 108.763C135.72 103.958 131.352 100.173 129.428 100.88L122.2 103.048Z" fill="#455A64"/>
<path d="M127.738 96.6472L124.316 97.5832C119.548 98.8832 115.664 95.5032 115.643 89.9808C115.617 83.3872 120.229 76.7832 125.939 75.2232C131.659 73.6632 136.302 77.7452 136.339 84.3336C136.354 89.8352 132.506 95.3472 127.738 96.6472Z" fill="#263238"/>
<path d="M123.266 73.1328C124.743 75.2492 123.178 77.3864 120.999 79.6744C118.82 81.9624 116.865 83.538 115.388 81.4216C113.911 79.3052 114.728 76.284 116.901 73.996C119.075 71.708 121.789 71.0164 123.266 73.1328Z" fill="#263238"/>
<path d="M117.941 82.3264L115.752 84.786C115.528 84.4395 115.429 84.0268 115.471 83.6164C115.514 83.2059 115.695 82.8223 115.986 82.5292C116.589 81.8532 117.468 81.7596 117.941 82.3264Z" fill="#263238"/>
<path d="M132.34 78.8268C133.437 79.274 134.8 82.0768 134.69 88.7588C134.597 94.4216 133.021 96.2468 132.226 96.8656C131.43 97.4844 129.901 97.656 128.409 97.7756L128.492 101.176C128.492 101.176 131.004 102.877 130.884 104.463C130.764 106.049 127.4 107.666 125.466 106.678C124.201 105.993 123.033 105.143 121.992 104.151C121.964 104.123 121.942 104.09 121.927 104.053C121.913 104.016 121.907 103.977 121.909 103.938V95.3992C121.909 95.3992 121.035 96.6212 119.543 95.5292C118.915 95.0352 118.495 94.3238 118.366 93.5353C118.237 92.7469 118.408 91.9387 118.846 91.2704C119.798 89.8872 121.566 89.7104 122.247 91.1196C122.247 91.1196 124.628 90.5996 127.785 87.7032C130.317 85.3849 131.933 82.2354 132.34 78.8268Z" fill="#FFA8A7"/>
<path d="M129.23 88.8316C129.241 89.0264 129.191 89.2197 129.088 89.3853C128.984 89.5509 128.833 89.6807 128.653 89.7572C128.315 89.8716 128.024 89.6324 128.008 89.2372C127.998 89.0423 128.048 88.849 128.151 88.6835C128.254 88.5179 128.406 88.3881 128.586 88.3116C128.924 88.1972 129.215 88.4312 129.23 88.8316Z" fill="#263238"/>
<path d="M129.412 93.5636L130.842 93.6988C130.807 93.9237 130.696 94.1298 130.528 94.283C130.36 94.4362 130.144 94.5273 129.917 94.5412C129.522 94.5048 129.298 94.0628 129.412 93.5636Z" fill="#F28F8F"/>
<path d="M134.259 85.28L133.011 84.6248C133.24 84.1516 133.697 83.9176 134.051 84.1048C134.225 84.24 134.343 84.4351 134.381 84.6523C134.42 84.8695 134.376 85.0932 134.259 85.28Z" fill="#263238"/>
<path d="M133.978 87.022C133.989 87.2176 133.939 87.4117 133.836 87.5781C133.732 87.7446 133.581 87.8754 133.401 87.9528C133.063 88.062 132.772 87.828 132.751 87.4328C132.742 87.2375 132.792 87.044 132.895 86.8778C132.998 86.7117 133.149 86.5806 133.328 86.502C133.671 86.3876 133.957 86.6216 133.978 87.022Z" fill="#263238"/>
<path d="M131.212 87.022L131.191 91.6448L133.136 90.4176L131.212 87.022Z" fill="#F28F8F"/>
<path d="M128.409 97.76C126.849 97.9524 123.604 97.76 123.094 96.4288C123.277 97.0675 123.68 97.6205 124.233 97.9888C125.2 98.6752 128.435 98.8832 128.435 98.8832L128.409 97.76Z" fill="#F28F8F"/>
<path d="M124.28 135.2C121.612 135.2 119.922 132.527 120.64 129.282C120.671 129.158 120.697 129.048 120.723 128.965C121.243 127.374 122.366 127.265 122.366 127.265C121.326 126.745 120.806 125.497 120.572 124.145L119.356 117.827C119.236 116.703 119.32 115.567 119.605 114.473L116.34 110.989L115.742 111.639C115.242 113.546 115.287 115.554 115.872 117.437L119.106 127.4C117.777 130.341 116.684 133.382 115.835 136.495C121.815 138.746 128.887 136.37 133.177 133.177C130.385 134.465 127.354 135.154 124.28 135.2Z" fill="#37474F"/>
<path d="M107.526 133.874C111.134 115.877 113.937 107.817 117.884 105.056C119.163 104.161 120.541 104.707 120.749 106.21C121.129 108.909 120.448 113.24 118.669 116.511C118.669 116.511 113.407 130.749 112.564 135.538C111.831 139.724 111.004 144.966 111.041 148.392C111.029 148.955 111.238 149.5 111.623 149.911C112.59 150.857 112.59 151.83 113.214 152.994C113.703 153.904 114.254 154.149 114.088 154.424C113.943 154.694 113.703 154.9 113.415 155.003C113.127 155.107 112.812 155.101 112.528 154.986C112.068 154.727 111.661 154.385 111.327 153.977C111.485 155.161 111.805 156.318 112.278 157.414C113.36 159.936 113.095 161.444 109.803 161.325C107.723 161.247 106.449 159.614 106.163 153.972C106.006 151.878 105.978 149.777 106.08 147.68C106.532 142.111 106.85 137.28 107.526 133.874Z" fill="#FFA8A7"/>
</g>
<path d="M192.078 146.177C192.494 130.686 191.251 126.974 187.127 124.134L185.531 133.12C185.531 133.12 187.408 143.697 187.205 147.222C187.028 150.316 186.732 154.19 185.999 156.692C185.859 157.126 185.567 157.495 185.177 157.732C184.137 158.387 183.706 159.063 182.91 159.89C182.291 160.54 181.766 160.701 181.87 160.93C181.993 161.154 182.194 161.324 182.434 161.41C182.675 161.495 182.939 161.489 183.175 161.392C183.701 161.181 184.2 160.909 184.662 160.581C184.298 161.524 183.783 162.402 183.139 163.181C181.667 164.991 181.579 166.098 184.574 166.124C186.436 166.124 187.923 164.991 189.327 160.888C189.87 159.383 190.308 157.842 190.637 156.276C191.324 152.225 192.01 148.668 192.078 146.177Z" fill="#FFA8A7"/>
<path d="M183.659 122.959C185.624 122.673 188.302 123.084 190.029 126.178C191.755 129.272 192.182 134.586 192.4 139.88C192.4 139.88 188.968 142.75 184.85 141.336L183.659 122.959Z" fill="#877ACE"/>
<path opacity="0.1" d="M183.659 122.959C185.624 122.673 188.302 123.084 190.029 126.178C191.755 129.272 192.182 134.586 192.4 139.88C192.4 139.88 188.968 142.75 184.85 141.336L183.659 122.959Z" fill="black"/>
<path d="M189.452 208.161C189.764 208.276 189.842 208.874 189.888 210.059C189.925 210.954 190.117 212.519 189.067 212.831C188.016 213.143 186.467 212.982 185.806 212.139C184.969 211.099 184.402 210.158 183.206 208.868C182.166 207.756 181.043 206.71 180.606 205.15C180.227 203.736 180.544 203.122 181.506 202.712C182.832 202.145 184.917 203.991 185.957 204.272C186.867 204.532 189.14 208.042 189.452 208.161Z" fill="#263238"/>
<path d="M189.452 207.064V208.52C188.906 208.87 188.275 209.064 187.627 209.081C186.979 209.099 186.339 208.939 185.775 208.619C185.713 208.484 185.396 206.539 185.396 206.539L189.452 207.064Z" fill="#FFA8A7"/>
<path d="M177.679 216.538C177.679 216.538 178.095 217.802 178.318 218.904C178.5 219.783 178.755 221.255 178.448 221.915C178.142 222.576 176.94 223.002 175.079 222.986C173.872 222.986 171.995 223.798 170.706 224.515C169.416 225.233 166.618 225.555 165.214 225.384C163.556 225.191 161.84 224.229 161.574 223.548C161.309 222.867 161.663 222.149 165.563 220.485C165.599 220.485 170.986 218.717 172.874 216.632L177.679 216.538Z" fill="#263238"/>
<path d="M177.679 214.963C177.679 214.963 177.679 216.044 177.679 216.658C177.679 217.272 176.956 218.218 175.079 218.13C173.753 218.083 172.827 217.724 172.879 216.632V215.072L177.679 214.963Z" fill="#FFA8A7"/>
<path d="M190.393 187.772C190.073 185.198 189.498 182.661 188.677 180.201C188.677 180.201 189.197 173.67 189.446 167.482C189.717 160.789 189.446 152.402 189.561 150.712C189.561 150.712 167.976 146.349 167.591 154.081C167.206 161.814 168.444 181.496 168.698 184.891C168.953 188.287 169.541 191.292 170.258 196.799C170.976 202.306 172.89 215.062 172.89 215.062C173.637 215.442 174.466 215.633 175.304 215.616C176.143 215.598 176.964 215.374 177.694 214.963C177.694 214.963 179.213 199.503 179.052 195.582C178.931 192.679 178.433 189.803 177.57 187.028C177.57 187.028 177.975 180.653 178.339 175.11C178.703 169.567 179.083 166.899 179.166 164.486L179.629 164.258C179.629 164.258 180.102 173.826 180.357 177.221C180.612 180.617 181.152 183.872 182.135 190.185C182.988 195.655 185.531 207.236 185.531 207.236C187.996 208.572 189.467 207.064 189.467 207.064C189.467 207.064 191.058 192.525 190.393 187.772Z" fill="#37474F"/>
<path d="M179.15 164.486C179.15 164.486 184.387 161.886 187.008 159.578C187.008 159.578 184.574 163.01 181.381 164.528C181.381 164.528 180.242 176.41 180.248 176.176L179.592 164.466L179.15 164.486Z" fill="#263238"/>
<path d="M174.491 120.51L175.765 127.54L182.12 127.078L180.783 119.106L174.491 120.51Z" fill="#FFA8A7"/>
<path d="M188.822 126.563C188.193 124.649 185.77 122.569 183.342 123.022C179.738 123.632 176.186 124.519 172.718 125.674C170.498 126.469 168.47 128.388 168.288 135.694C168.288 135.694 167.544 152.729 167.528 156.026C173.108 158.231 178.911 158.163 182.12 157.461C188.791 156.005 189.597 153.234 189.597 153.234C189.597 153.234 189.686 140.988 189.483 135.694C189.316 131.201 189.28 127.873 188.822 126.563Z" fill="#877ACE"/>
<path d="M169.593 111.961C169.593 111.961 167.981 114.525 168.178 114.769C168.376 115.014 169.603 115.211 169.603 115.211L169.593 111.961Z" fill="#F28F8F"/>
<path d="M174.065 104.858C170.706 105.643 169.764 107.151 169.567 112.518C169.359 118.123 169.972 119.87 170.726 120.609C171.246 121.129 173.997 121.129 175.38 120.718C177.112 120.198 181.017 118.716 182.796 115.856C184.876 112.497 185.359 107.988 182.998 106.2C179.67 103.683 175.427 104.52 174.065 104.858Z" fill="#FFA8A7"/>
<path d="M169.603 106.252C170.591 107.942 172.723 108.748 172.723 108.748C173.368 109.481 173.014 112.341 174.143 112.793C174.143 112.793 174.632 110.713 176.384 110.932C178.136 111.15 178.433 113.386 177.356 114.774C176.28 116.163 175.235 115.658 175.235 115.658C175.235 115.658 175.36 118.617 176.706 120.266C176.706 120.266 178.209 120.713 180.939 120.068C182.619 119.668 184.954 117.504 185.905 115.253C187.923 110.484 187.985 106.231 184.933 105.024C184.553 102.856 182.822 101.904 180.856 101.514C176.634 100.641 173.909 103.282 170.654 103.074C168.797 102.918 168.449 104.276 169.603 106.252Z" fill="#263238"/>
<path d="M185.006 105.752L186.997 104.515C186.833 104.251 186.571 104.063 186.268 103.992C185.965 103.921 185.647 103.974 185.383 104.138C185.118 104.302 184.93 104.564 184.86 104.867C184.789 105.17 184.841 105.488 185.006 105.752Z" fill="#263238"/>
<path d="M172.983 125.788C170.944 126.099 169.092 127.153 167.783 128.747C165.875 131.092 159.25 140.468 159.25 140.468C159.25 140.468 148.85 135.268 148.361 134.659C147.872 134.051 148.138 132.798 148.278 132.116C148.418 131.435 148.652 129.906 148.798 129.48C149.063 128.736 147.961 128.934 147.311 129.631C146.661 130.328 146.37 131.711 146.047 131.929C145.725 132.148 143.255 129.329 142.054 127.951C140.852 126.573 140.296 125.627 139.49 126.188C138.913 126.599 139.287 127.41 140.145 128.586C140.547 129.082 140.917 129.603 141.253 130.146C141.357 130.354 141.04 130.525 140.915 130.634C140.681 130.842 140.27 131.186 140.239 131.508C140.243 131.682 140.233 131.856 140.208 132.028C140.093 132.418 139.61 132.6 139.474 132.985C139.376 133.26 139.474 133.567 139.428 133.858C139.391 134.046 139.292 134.212 139.256 134.378C139.245 134.564 139.273 134.75 139.34 134.924C139.406 135.098 139.509 135.256 139.641 135.387C140.483 136.386 141.632 136.77 142.735 137.379C143.655 137.899 144.602 138.112 145.657 138.58C146.713 139.048 159.177 148.616 161.127 147.545C163.077 146.474 172.796 135.2 172.796 135.2C176.103 129.906 172.983 125.788 172.983 125.788Z" fill="#FFA8A7"/>
<path d="M173.893 125.273C172.536 125.429 170.253 125.533 168.074 128.034C165.474 130.957 162.089 135.73 162.089 135.73C162.437 137.137 163.184 138.414 164.239 139.407C165.294 140.4 166.613 141.068 168.038 141.331C168.038 141.331 172.718 136.562 173.992 133.936C175.266 131.31 175.49 127.046 173.893 125.273Z" fill="#877ACE"/>
<path opacity="0.1" d="M173.893 125.273C172.536 125.429 170.253 125.533 168.074 128.034C165.474 130.957 162.089 135.73 162.089 135.73C162.437 137.137 163.184 138.414 164.239 139.407C165.294 140.4 166.613 141.068 168.038 141.331C168.038 141.331 172.718 136.562 173.992 133.936C175.266 131.31 175.49 127.046 173.893 125.273Z" fill="black"/>
</svg>
