<svg width="260" height="260" viewBox="0 0 260 260" fill="none" xmlns="http://www.w3.org/2000/svg">
<path d="M220.334 83.4496C220.334 83.4496 211.562 48.2664 158.454 26.078C105.347 3.8896 57.8344 24.44 47.0028 50.44C36.1712 76.44 47.5228 90.48 40.2948 112.684C33.0668 134.888 -4.06639 163.01 10.92 197.111C25.9064 231.213 96.0336 240.952 152.781 233.917C209.529 226.881 253.864 148.938 220.334 83.4496Z" fill="#877ACE"/>
<path opacity="0.7" d="M220.334 83.4496C220.334 83.4496 211.562 48.2664 158.454 26.078C105.347 3.8896 57.8344 24.44 47.0028 50.44C36.1712 76.44 47.5228 90.48 40.2948 112.684C33.0668 134.888 -4.06639 163.01 10.92 197.111C25.9064 231.213 96.0336 240.952 152.781 233.917C209.529 226.881 253.864 148.938 220.334 83.4496Z" fill="white"/>
<path d="M82.16 55.4216H39C37.6209 55.4216 36.2982 55.9695 35.323 56.9446C34.3478 57.9198 33.8 59.2425 33.8 60.6216V76.7416C33.8 78.1207 34.3478 79.4434 35.323 80.4186C36.2982 81.3937 37.6209 81.9416 39 81.9416H81.9L87.36 89.2216V60.6216C87.36 59.2425 86.8121 57.9198 85.837 56.9446C84.8618 55.9695 83.5391 55.4216 82.16 55.4216Z" fill="#263238"/>
<path d="M154.96 55.9416C154.96 55.9416 153.036 55.2604 152.599 56.9816C152.162 58.7028 154.71 59.3424 155.022 59.3424C155.334 59.3424 155.828 58.9108 155.516 57.9176C155.204 56.9244 154.96 55.9416 154.96 55.9416Z" fill="#263238" stroke="#263238" stroke-linecap="round" stroke-linejoin="round"/>
<path d="M165.88 51.7192C165.88 51.7192 165.693 54.2048 165.693 55.198C165.693 56.1912 166.733 56.5656 167.253 56.5656C167.773 56.5656 168.002 57.746 167.69 58.9888C167.378 60.2316 166.322 60.9752 163.774 60.9752C161.226 60.9752 159.676 59.8572 159.614 59.0512C159.552 58.2452 160.17 54.7612 161.231 53.8512C162.292 52.9412 165.88 51.7192 165.88 51.7192Z" fill="#263238" stroke="#263238" stroke-linecap="round" stroke-linejoin="round"/>
<path d="M156.577 59.358V60.32C156.578 60.4714 156.621 60.6195 156.703 60.7467C156.785 60.8739 156.902 60.9749 157.04 61.0376C157.486 61.2264 157.961 61.3406 158.444 61.3756C159.418 61.3758 160.38 61.1628 161.262 60.7516C161.385 60.6995 161.489 60.6125 161.562 60.5015C161.635 60.3905 161.674 60.2605 161.673 60.1276V59.124C161.672 59.0628 161.656 59.0028 161.626 58.9493C161.597 58.8958 161.554 58.8504 161.503 58.817C161.452 58.7836 161.393 58.7634 161.332 58.758C161.271 58.7526 161.21 58.7622 161.153 58.786L160.95 58.89C160.95 58.89 157.882 59.28 156.577 59.358Z" fill="#877ACE" stroke="#263238" stroke-linecap="round" stroke-linejoin="round"/>
<path d="M155.215 51.22C154.875 52.586 154.645 53.9772 154.528 55.38C154.341 57.6784 154.528 59.7896 155.459 59.852C156.098 59.8532 156.724 59.6728 157.264 59.332C157.264 59.332 159.437 59.5816 160.181 59.2124L160.93 58.838L161.486 55.198C161.486 55.198 161.548 49.5456 160.493 49.1712C159.437 48.7968 155.215 51.22 155.215 51.22Z" fill="white" stroke="#263238" stroke-linecap="round" stroke-linejoin="round"/>
<path d="M156.889 53.768L156.395 55.0732C156.395 55.0732 155.397 55.3228 155.522 55.8168C155.646 56.3108 156.307 56.238 156.307 56.238" stroke="#263238" stroke-linecap="round" stroke-linejoin="round"/>
<path d="M158.486 54.3348C158.387 54.6052 158.184 54.782 158.044 54.73C157.903 54.678 157.862 54.4128 157.966 54.1372C158.07 53.8616 158.267 53.6848 158.413 53.742C158.558 53.7992 158.6 54.08 158.486 54.3348Z" fill="#263238"/>
<path d="M156.146 53.7056C156.042 53.9812 155.844 54.158 155.698 54.106C155.553 54.054 155.522 53.7836 155.62 53.5132C155.719 53.2428 155.922 53.0608 156.068 53.1128C156.213 53.1648 156.244 53.4352 156.146 53.7056Z" fill="#263238"/>
<path d="M158.007 52.5876C158.007 52.5876 159.188 52.2756 159.312 53.3988" stroke="#263238" stroke-linecap="round" stroke-linejoin="round"/>
<path d="M156.458 52.2756C156.458 52.2756 155.418 51.9064 155.09 52.7956" stroke="#263238" stroke-linecap="round" stroke-linejoin="round"/>
<path d="M157.264 59.358L158.938 58.6768" stroke="#263238" stroke-linecap="round" stroke-linejoin="round"/>
<path d="M156 48.36C156 48.36 154.014 45.9992 152.521 47.736C151.029 49.4728 151.481 52.0884 154.138 52.2132C156.796 52.338 159.791 49.7276 159.791 49.7276C159.791 49.7276 159.479 53.144 160.222 54.3244C160.966 55.5048 161.528 56.3108 161.528 56.3108C161.528 56.3108 162.568 56.992 164.325 55.6296C166.083 54.2672 166.499 50.9496 165.256 48.7292C164.013 46.5088 161.84 45.2504 159.229 46.1292C156.619 47.008 156 48.36 156 48.36Z" fill="#263238" stroke="#263238" stroke-linecap="round" stroke-linejoin="round"/>
<path d="M160.306 56.2536C160.306 56.2536 162.542 54.2048 162.542 55.3852C162.542 56.5656 161.502 57.6212 160.68 57.3716" fill="white"/>
<path d="M160.306 56.2536C160.306 56.2536 162.542 54.2048 162.542 55.3852C162.542 56.5656 161.502 57.6212 160.68 57.3716" stroke="#263238" stroke-linecap="round" stroke-linejoin="round"/>
<path d="M155.522 57.2C155.815 57.4116 156.168 57.5254 156.53 57.5254C156.892 57.5254 157.245 57.4116 157.539 57.2" stroke="#263238" stroke-linecap="round" stroke-linejoin="round"/>
<path d="M167.061 61.1264C171.032 56.901 170.825 50.2567 166.6 46.286C162.374 42.3153 155.73 42.5218 151.759 46.7472C147.789 50.9727 147.995 57.6169 152.221 61.5876C156.446 65.5583 163.09 65.3518 167.061 61.1264Z" stroke="#263238" stroke-linecap="round" stroke-linejoin="round"/>
<path d="M230.857 139.343C236.824 137.948 240.531 131.979 239.136 126.011C237.74 120.044 231.771 116.337 225.804 117.732C219.836 119.128 216.129 125.097 217.525 131.064C218.92 137.032 224.889 140.738 230.857 139.343Z" stroke="#263238" stroke-linecap="round" stroke-linejoin="round"/>
<path d="M232.118 131.81C232.118 132.54 231.901 133.254 231.495 133.861C231.09 134.468 230.513 134.941 229.838 135.221C229.164 135.5 228.422 135.573 227.705 135.431C226.989 135.288 226.331 134.937 225.815 134.42C225.299 133.904 224.947 133.246 224.805 132.53C224.662 131.814 224.735 131.071 225.015 130.397C225.294 129.722 225.767 129.146 226.374 128.74C226.982 128.334 227.695 128.118 228.426 128.118C229.405 128.118 230.344 128.507 231.036 129.199C231.729 129.891 232.118 130.83 232.118 131.81Z" fill="#877ACE" stroke="#263238" stroke-linecap="round" stroke-linejoin="round"/>
<path d="M233.704 134.269C234.5 133.275 235 132.076 235.144 130.811C235.289 129.545 235.074 128.264 234.522 127.116C233.971 125.968 233.106 124.999 232.028 124.32C230.95 123.642 229.702 123.282 228.428 123.282C227.154 123.282 225.907 123.642 224.828 124.32C223.75 124.999 222.886 125.968 222.334 127.116C221.783 128.264 221.567 129.545 221.712 130.811C221.857 132.076 222.356 133.275 223.153 134.269H233.704Z" fill="white" stroke="#263238" stroke-linecap="round" stroke-linejoin="round"/>
<path d="M231.062 132.356H225.623C225.305 132.356 224.99 132.293 224.696 132.171C224.402 132.049 224.134 131.871 223.909 131.646C223.684 131.421 223.506 131.154 223.384 130.86C223.262 130.566 223.2 130.251 223.2 129.932C223.199 129.614 223.261 129.299 223.383 129.004C223.504 128.71 223.683 128.443 223.908 128.217C224.133 127.992 224.4 127.814 224.695 127.692C224.989 127.571 225.304 127.509 225.623 127.509H231.062C231.38 127.509 231.696 127.571 231.99 127.692C232.284 127.814 232.552 127.992 232.777 128.217C233.002 128.443 233.181 128.71 233.302 129.004C233.424 129.299 233.486 129.614 233.485 129.932C233.485 130.575 233.23 131.191 232.776 131.646C232.321 132.1 231.705 132.356 231.062 132.356Z" fill="#877ACE" stroke="#263238" stroke-linecap="round" stroke-linejoin="round"/>
<path d="M224.312 129.735C224.424 129.423 224.627 129.152 224.895 128.957C225.163 128.763 225.484 128.654 225.815 128.645C226.147 128.636 226.473 128.727 226.751 128.907C227.03 129.086 227.247 129.346 227.375 129.652" stroke="#263238" stroke-width="2" stroke-linecap="round" stroke-linejoin="round"/>
<path d="M229.398 129.735C229.509 129.423 229.713 129.152 229.981 128.957C230.249 128.763 230.57 128.654 230.901 128.645C231.232 128.636 231.558 128.727 231.837 128.907C232.115 129.086 232.333 129.346 232.461 129.652" stroke="#263238" stroke-width="2" stroke-linecap="round" stroke-linejoin="round"/>
<path d="M227.536 130.858C227.561 131.087 227.669 131.298 227.84 131.452C228.01 131.606 228.232 131.691 228.462 131.691C228.692 131.691 228.914 131.606 229.085 131.452C229.255 131.298 229.363 131.087 229.388 130.858H227.536Z" fill="white" stroke="#263238" stroke-linecap="round" stroke-linejoin="round"/>
<path d="M237.167 131.243C237.074 131.243 236.982 131.225 236.896 131.189C236.81 131.153 236.732 131.101 236.667 131.036C236.601 130.97 236.549 130.892 236.513 130.806C236.478 130.72 236.46 130.628 236.46 130.536V128.929C236.46 128.836 236.478 128.744 236.513 128.658C236.549 128.572 236.601 128.494 236.667 128.429C236.732 128.363 236.81 128.311 236.896 128.275C236.982 128.24 237.074 128.222 237.167 128.222C237.26 128.222 237.352 128.24 237.437 128.275C237.523 128.311 237.601 128.363 237.667 128.429C237.733 128.494 237.785 128.572 237.82 128.658C237.856 128.744 237.874 128.836 237.874 128.929V130.52C237.876 130.614 237.859 130.708 237.825 130.795C237.79 130.883 237.738 130.963 237.673 131.03C237.607 131.098 237.528 131.151 237.441 131.188C237.354 131.224 237.261 131.243 237.167 131.243Z" fill="#263238" stroke="#263238" stroke-linecap="round" stroke-linejoin="round"/>
<path d="M219.497 131.243C219.404 131.243 219.312 131.225 219.227 131.189C219.141 131.153 219.063 131.101 218.997 131.036C218.932 130.97 218.879 130.892 218.844 130.806C218.808 130.72 218.79 130.628 218.79 130.536V128.929C218.79 128.836 218.808 128.744 218.844 128.658C218.879 128.572 218.932 128.494 218.997 128.429C219.063 128.363 219.141 128.311 219.227 128.275C219.312 128.24 219.404 128.222 219.497 128.222C219.59 128.222 219.682 128.24 219.768 128.275C219.854 128.311 219.932 128.363 219.997 128.429C220.063 128.494 220.115 128.572 220.151 128.658C220.186 128.744 220.204 128.836 220.204 128.929V130.52C220.207 130.614 220.19 130.708 220.155 130.795C220.121 130.883 220.069 130.963 220.003 131.03C219.937 131.098 219.858 131.151 219.772 131.188C219.685 131.224 219.591 131.243 219.497 131.243Z" fill="#263238" stroke="#263238" stroke-linecap="round" stroke-linejoin="round"/>
<path d="M220.802 129.028C220.606 129.026 220.418 128.947 220.28 128.808C220.142 128.669 220.064 128.48 220.064 128.284V127.119C220.062 125.857 220.439 124.623 221.146 123.578C221.196 123.489 221.265 123.411 221.347 123.35C221.429 123.289 221.523 123.245 221.623 123.222C221.723 123.198 221.827 123.196 221.928 123.215C222.028 123.233 222.124 123.273 222.209 123.33C222.294 123.388 222.366 123.462 222.421 123.549C222.475 123.636 222.512 123.733 222.527 123.834C222.542 123.936 222.537 124.039 222.51 124.138C222.484 124.237 222.437 124.33 222.373 124.41C221.832 125.21 221.544 126.154 221.546 127.119V128.284C221.546 128.481 221.468 128.67 221.328 128.81C221.189 128.949 221 129.028 220.802 129.028Z" fill="#263238"/>
<path d="M235.165 124.368C235.104 124.369 235.044 124.353 234.99 124.324C234.937 124.295 234.891 124.253 234.858 124.202C234.381 123.491 233.737 122.909 232.981 122.507C232.225 122.105 231.382 121.896 230.526 121.898H226.398C225.542 121.896 224.699 122.105 223.943 122.507C223.187 122.909 222.543 123.491 222.066 124.202C222.01 124.284 221.924 124.341 221.826 124.359C221.729 124.378 221.628 124.357 221.546 124.301C221.505 124.274 221.47 124.238 221.442 124.197C221.415 124.156 221.396 124.11 221.387 124.062C221.378 124.013 221.378 123.963 221.389 123.915C221.399 123.867 221.419 123.821 221.447 123.781C221.992 122.97 222.729 122.306 223.591 121.847C224.453 121.388 225.416 121.149 226.392 121.15H230.521C231.499 121.149 232.463 121.389 233.326 121.849C234.189 122.309 234.926 122.974 235.472 123.786C235.5 123.827 235.519 123.873 235.529 123.921C235.539 123.97 235.539 124.02 235.53 124.068C235.52 124.117 235.501 124.163 235.473 124.203C235.445 124.244 235.409 124.279 235.368 124.306C235.307 124.346 235.237 124.368 235.165 124.368Z" fill="#263238"/>
<path d="M236.122 129.028C235.924 129.028 235.735 128.949 235.596 128.81C235.456 128.67 235.378 128.481 235.378 128.284V127.119C235.38 126.154 235.092 125.21 234.551 124.41C234.489 124.329 234.444 124.237 234.419 124.138C234.395 124.04 234.39 123.937 234.407 123.837C234.423 123.736 234.46 123.64 234.515 123.555C234.57 123.469 234.642 123.396 234.726 123.339C234.811 123.282 234.906 123.244 235.006 123.225C235.106 123.207 235.209 123.209 235.308 123.232C235.407 123.255 235.5 123.298 235.582 123.358C235.664 123.419 235.733 123.495 235.784 123.583C236.489 124.627 236.864 125.859 236.86 127.119V128.284C236.86 128.48 236.782 128.669 236.644 128.808C236.506 128.947 236.318 129.026 236.122 129.028Z" fill="#263238"/>
<path d="M220.896 132.293C220.507 132.293 220.134 132.139 219.859 131.864C219.584 131.589 219.43 131.216 219.43 130.827V128.497C219.43 128.108 219.584 127.735 219.859 127.46C220.134 127.185 220.507 127.031 220.896 127.031C221.285 127.031 221.658 127.185 221.933 127.46C222.208 127.735 222.362 128.108 222.362 128.497V130.827C222.362 131.216 222.208 131.589 221.933 131.864C221.658 132.139 221.285 132.293 220.896 132.293Z" fill="white" stroke="#263238" stroke-linecap="round" stroke-linejoin="round"/>
<path d="M221.047 127.031H220.745V132.293H221.047V127.031Z" fill="#877ACE" stroke="#263238" stroke-linecap="round" stroke-linejoin="round"/>
<path d="M237.318 128.497C237.318 127.687 236.661 127.031 235.851 127.031C235.041 127.031 234.385 127.687 234.385 128.497V130.827C234.385 131.637 235.041 132.293 235.851 132.293C236.661 132.293 237.318 131.637 237.318 130.827V128.497Z" fill="white" stroke="#263238" stroke-linecap="round" stroke-linejoin="round"/>
<path d="M236.002 127.031H235.7V132.293H236.002V127.031Z" fill="#877ACE" stroke="#263238" stroke-linecap="round" stroke-linejoin="round"/>
<path d="M228.452 126.552C228.968 126.55 229.476 126.42 229.93 126.173C230.384 125.926 230.769 125.571 231.052 125.138L231.691 124.145C230.677 123.584 229.536 123.294 228.377 123.303C227.218 123.312 226.082 123.62 225.077 124.197L226.034 125.393C226.325 125.754 226.693 126.045 227.112 126.246C227.53 126.446 227.988 126.551 228.452 126.552Z" fill="#877ACE" stroke="#263238" stroke-linecap="round" stroke-linejoin="round"/>
<path d="M228.504 132.954C228.564 132.954 228.613 132.905 228.613 132.844C228.613 132.784 228.564 132.735 228.504 132.735C228.443 132.735 228.394 132.784 228.394 132.844C228.394 132.905 228.443 132.954 228.504 132.954Z" fill="#263238"/>
<path d="M228.613 133.224C228.611 133.196 228.599 133.169 228.579 133.15C228.559 133.131 228.532 133.12 228.504 133.12C228.49 133.119 228.475 133.121 228.462 133.126C228.449 133.131 228.437 133.139 228.427 133.149C228.416 133.158 228.408 133.17 228.403 133.183C228.397 133.196 228.394 133.21 228.394 133.224C228.394 133.253 228.406 133.281 228.426 133.301C228.447 133.322 228.475 133.333 228.504 133.333C228.533 133.333 228.56 133.322 228.581 133.301C228.601 133.281 228.613 133.253 228.613 133.224Z" fill="#263238"/>
<path d="M228.181 133.167C228.209 133.158 228.232 133.139 228.245 133.114C228.259 133.089 228.262 133.059 228.254 133.032C228.243 133.004 228.223 132.982 228.198 132.969C228.172 132.955 228.142 132.952 228.114 132.959C228.086 132.967 228.063 132.986 228.049 133.011C228.036 133.037 228.033 133.066 228.041 133.094C228.051 133.121 228.071 133.144 228.097 133.157C228.123 133.17 228.153 133.174 228.181 133.167Z" fill="#263238"/>
<path d="M228.862 133.167C228.89 133.158 228.913 133.139 228.927 133.114C228.94 133.089 228.943 133.059 228.935 133.032C228.926 133.004 228.906 132.981 228.88 132.967C228.853 132.953 228.823 132.951 228.795 132.959C228.781 132.963 228.769 132.97 228.758 132.979C228.747 132.988 228.738 132.999 228.732 133.012C228.726 133.024 228.722 133.038 228.721 133.052C228.72 133.067 228.722 133.081 228.727 133.094C228.736 133.121 228.755 133.145 228.78 133.158C228.805 133.172 228.835 133.175 228.862 133.167Z" fill="#263238"/>
<path d="M214.698 71.838H173.321V53.404V48.516L178.214 53.404H214.698V71.838Z" fill="#D6D6D6" stroke="#263238" stroke-linecap="round" stroke-linejoin="round"/>
<path d="M214.698 98.54H173.321V80.1112V75.2232L178.214 80.1112H214.698V98.54Z" fill="#D6D6D6" stroke="#263238" stroke-linecap="round" stroke-linejoin="round"/>
<path d="M200.949 59.748H210.688" stroke="#263238" stroke-linecap="round" stroke-linejoin="round"/>
<path d="M187.32 59.748H198.448" stroke="#263238" stroke-linecap="round" stroke-linejoin="round"/>
<path d="M178.974 59.748H185.37" stroke="#263238" stroke-linecap="round" stroke-linejoin="round"/>
<path d="M196.498 62.8108H210.688" stroke="#263238" stroke-linecap="round" stroke-linejoin="round"/>
<path d="M178.974 62.8108H193.996" stroke="#263238" stroke-linecap="round" stroke-linejoin="round"/>
<path d="M207.906 65.8684H210.688" stroke="#263238" stroke-linecap="round" stroke-linejoin="round"/>
<path d="M192.327 65.8684H205.681" stroke="#263238" stroke-linecap="round" stroke-linejoin="round"/>
<path d="M178.974 65.8684H190.102" stroke="#263238" stroke-linecap="round" stroke-linejoin="round"/>
<path d="M200.949 85.618H210.688" stroke="#263238" stroke-linecap="round" stroke-linejoin="round"/>
<path d="M187.32 85.618H198.448" stroke="#263238" stroke-linecap="round" stroke-linejoin="round"/>
<path d="M178.974 85.618H185.37" stroke="#263238" stroke-linecap="round" stroke-linejoin="round"/>
<path d="M196.498 88.6808H210.688" stroke="#263238" stroke-linecap="round" stroke-linejoin="round"/>
<path d="M178.974 88.6808H193.996" stroke="#263238" stroke-linecap="round" stroke-linejoin="round"/>
<path d="M207.906 91.7384H210.688" stroke="#263238" stroke-linecap="round" stroke-linejoin="round"/>
<path d="M192.327 91.7384H205.681" stroke="#263238" stroke-linecap="round" stroke-linejoin="round"/>
<path d="M178.974 91.7384H190.102" stroke="#263238" stroke-linecap="round" stroke-linejoin="round"/>
<path d="M173.321 173.633H214.698V129.054V124.166L209.804 129.054H173.321V173.633Z" fill="#877ACE" stroke="#263238" stroke-linecap="round" stroke-linejoin="round"/>
<path d="M200.949 135.138H210.688" stroke="#263238" stroke-linecap="round" stroke-linejoin="round"/>
<path d="M187.32 135.138H198.448" stroke="#263238" stroke-linecap="round" stroke-linejoin="round"/>
<path d="M178.974 135.138H185.37" stroke="#263238" stroke-linecap="round" stroke-linejoin="round"/>
<path d="M196.498 138.195H210.688" stroke="#263238" stroke-linecap="round" stroke-linejoin="round"/>
<path d="M178.974 138.195H193.996" stroke="#263238" stroke-linecap="round" stroke-linejoin="round"/>
<path d="M207.906 141.258H210.688" stroke="#263238" stroke-linecap="round" stroke-linejoin="round"/>
<path d="M192.327 141.258H205.681" stroke="#263238" stroke-linecap="round" stroke-linejoin="round"/>
<path d="M178.974 141.258H190.102" stroke="#263238" stroke-linecap="round" stroke-linejoin="round"/>
<path d="M200.949 143.759H210.688" stroke="#263238" stroke-linecap="round" stroke-linejoin="round"/>
<path d="M187.32 143.759H198.448" stroke="#263238" stroke-linecap="round" stroke-linejoin="round"/>
<path d="M178.974 143.759H185.37" stroke="#263238" stroke-linecap="round" stroke-linejoin="round"/>
<path d="M196.498 146.822H210.688" stroke="#263238" stroke-linecap="round" stroke-linejoin="round"/>
<path d="M178.974 146.822H193.996" stroke="#263238" stroke-linecap="round" stroke-linejoin="round"/>
<path d="M207.906 149.88H210.688" stroke="#263238" stroke-linecap="round" stroke-linejoin="round"/>
<path d="M192.327 149.88H205.681" stroke="#263238" stroke-linecap="round" stroke-linejoin="round"/>
<path d="M178.974 149.88H190.102" stroke="#263238" stroke-linecap="round" stroke-linejoin="round"/>
<path d="M200.949 152.386H210.688" stroke="#263238" stroke-linecap="round" stroke-linejoin="round"/>
<path d="M187.32 152.386H198.448" stroke="#263238" stroke-linecap="round" stroke-linejoin="round"/>
<path d="M178.974 152.386H185.37" stroke="#263238" stroke-linecap="round" stroke-linejoin="round"/>
<path d="M196.498 155.444H210.688" stroke="#263238" stroke-linecap="round" stroke-linejoin="round"/>
<path d="M178.974 155.444H193.996" stroke="#263238" stroke-linecap="round" stroke-linejoin="round"/>
<path d="M207.906 158.506H210.688" stroke="#263238" stroke-linecap="round" stroke-linejoin="round"/>
<path d="M192.327 158.506H205.681" stroke="#263238" stroke-linecap="round" stroke-linejoin="round"/>
<path d="M178.974 158.506H190.102" stroke="#263238" stroke-linecap="round" stroke-linejoin="round"/>
<path d="M200.949 161.008H210.688" stroke="#263238" stroke-linecap="round" stroke-linejoin="round"/>
<path d="M187.32 161.008H198.448" stroke="#263238" stroke-linecap="round" stroke-linejoin="round"/>
<path d="M178.974 161.008H185.37" stroke="#263238" stroke-linecap="round" stroke-linejoin="round"/>
<path d="M196.498 164.07H210.688" stroke="#263238" stroke-linecap="round" stroke-linejoin="round"/>
<path d="M178.974 164.07H193.996" stroke="#263238" stroke-linecap="round" stroke-linejoin="round"/>
<path d="M207.906 167.128H210.688" stroke="#263238" stroke-linecap="round" stroke-linejoin="round"/>
<path d="M192.327 167.128H205.681" stroke="#263238" stroke-linecap="round" stroke-linejoin="round"/>
<path d="M178.974 167.128H190.102" stroke="#263238" stroke-linecap="round" stroke-linejoin="round"/>
<path d="M228.332 198.422C234.461 198.422 239.429 193.453 239.429 187.325C239.429 181.196 234.461 176.228 228.332 176.228C222.203 176.228 217.235 181.196 217.235 187.325C217.235 193.453 222.203 198.422 228.332 198.422Z" stroke="#263238" stroke-linecap="round" stroke-linejoin="round"/>
<path d="M232.118 190.596C232.119 191.326 231.903 192.04 231.498 192.648C231.093 193.256 230.517 193.73 229.842 194.01C229.168 194.291 228.425 194.364 227.709 194.222C226.992 194.081 226.334 193.729 225.817 193.213C225.3 192.697 224.948 192.039 224.805 191.323C224.662 190.607 224.735 189.864 225.014 189.189C225.293 188.514 225.767 187.937 226.374 187.531C226.981 187.125 227.695 186.909 228.426 186.909C229.404 186.909 230.342 187.297 231.034 187.988C231.727 188.68 232.116 189.617 232.118 190.596Z" fill="#877ACE" stroke="#263238" stroke-linecap="round" stroke-linejoin="round"/>
<path d="M233.704 193.055C234.5 192.061 235 190.862 235.144 189.597C235.289 188.331 235.074 187.05 234.522 185.902C233.971 184.754 233.106 183.785 232.028 183.106C230.95 182.428 229.702 182.068 228.428 182.068C227.154 182.068 225.907 182.428 224.828 183.106C223.75 183.785 222.886 184.754 222.334 185.902C221.783 187.05 221.567 188.331 221.712 189.597C221.857 190.862 222.356 192.061 223.153 193.055H233.704Z" fill="white" stroke="#263238" stroke-linecap="round" stroke-linejoin="round"/>
<path d="M231.062 191.142H225.623C225.305 191.142 224.99 191.079 224.696 190.957C224.402 190.835 224.134 190.657 223.909 190.432C223.684 190.207 223.506 189.94 223.384 189.646C223.262 189.352 223.2 189.037 223.2 188.718C223.2 188.4 223.262 188.085 223.384 187.791C223.506 187.497 223.684 187.23 223.909 187.005C224.134 186.78 224.402 186.601 224.696 186.48C224.99 186.358 225.305 186.295 225.623 186.295H231.062C231.38 186.295 231.695 186.358 231.989 186.48C232.283 186.601 232.55 186.78 232.775 187.005C233.001 187.23 233.179 187.497 233.301 187.791C233.423 188.085 233.485 188.4 233.485 188.718C233.485 189.361 233.23 189.977 232.775 190.432C232.321 190.886 231.705 191.142 231.062 191.142Z" fill="#877ACE" stroke="#263238" stroke-linecap="round" stroke-linejoin="round"/>
<path d="M224.312 188.521C224.424 188.209 224.627 187.938 224.895 187.743C225.163 187.549 225.484 187.44 225.815 187.431C226.147 187.422 226.473 187.513 226.751 187.693C227.03 187.872 227.247 188.132 227.375 188.438" stroke="#263238" stroke-width="2" stroke-linecap="round" stroke-linejoin="round"/>
<path d="M229.398 188.521C229.509 188.209 229.713 187.938 229.981 187.743C230.249 187.549 230.57 187.44 230.901 187.431C231.232 187.422 231.558 187.513 231.837 187.693C232.115 187.872 232.333 188.132 232.461 188.438" stroke="#263238" stroke-width="2" stroke-linecap="round" stroke-linejoin="round"/>
<path d="M227.536 189.644C227.561 189.873 227.669 190.084 227.84 190.238C228.01 190.392 228.232 190.477 228.462 190.477C228.692 190.477 228.914 190.392 229.085 190.238C229.255 190.084 229.363 189.873 229.388 189.644H227.536Z" fill="white" stroke="#263238" stroke-linecap="round" stroke-linejoin="round"/>
<path d="M237.167 190.029C236.979 190.029 236.799 189.954 236.667 189.822C236.534 189.689 236.46 189.509 236.46 189.322V187.72C236.46 187.532 236.534 187.353 236.667 187.22C236.799 187.087 236.979 187.013 237.167 187.013C237.354 187.013 237.534 187.087 237.667 187.22C237.8 187.353 237.874 187.532 237.874 187.72V189.327C237.873 189.513 237.798 189.692 237.665 189.823C237.533 189.955 237.354 190.029 237.167 190.029Z" fill="#263238" stroke="#263238" stroke-linecap="round" stroke-linejoin="round"/>
<path d="M219.497 190.029C219.31 190.029 219.13 189.954 218.997 189.822C218.865 189.689 218.79 189.509 218.79 189.322V187.72C218.79 187.532 218.865 187.353 218.997 187.22C219.13 187.087 219.31 187.013 219.497 187.013C219.685 187.013 219.865 187.087 219.997 187.22C220.13 187.353 220.204 187.532 220.204 187.72V189.327C220.203 189.513 220.128 189.692 219.995 189.823C219.863 189.955 219.684 190.029 219.497 190.029Z" fill="#263238" stroke="#263238" stroke-linecap="round" stroke-linejoin="round"/>
<path d="M220.802 187.819C220.606 187.817 220.418 187.738 220.28 187.599C220.142 187.46 220.064 187.272 220.064 187.075V185.905C220.063 184.643 220.439 183.41 221.146 182.364C221.262 182.218 221.43 182.121 221.615 182.093C221.8 182.065 221.989 182.108 222.144 182.213C222.299 182.318 222.408 182.477 222.451 182.66C222.493 182.842 222.465 183.033 222.373 183.196C221.832 183.996 221.544 184.94 221.546 185.905V187.075C221.546 187.272 221.468 187.462 221.328 187.601C221.189 187.74 221 187.819 220.802 187.819Z" fill="#263238"/>
<path d="M235.165 183.154C235.104 183.154 235.045 183.14 234.992 183.111C234.938 183.083 234.892 183.043 234.858 182.993C234.382 182.281 233.737 181.698 232.982 181.296C232.226 180.893 231.383 180.683 230.526 180.684H226.398C225.542 180.685 224.7 180.895 223.945 181.297C223.19 181.699 222.545 182.279 222.066 182.988C222.039 183.028 222.004 183.063 221.963 183.09C221.922 183.116 221.877 183.135 221.829 183.144C221.781 183.153 221.732 183.153 221.684 183.143C221.637 183.133 221.591 183.114 221.551 183.087C221.511 183.06 221.476 183.025 221.45 182.984C221.423 182.943 221.404 182.898 221.395 182.85C221.386 182.802 221.386 182.753 221.396 182.705C221.406 182.658 221.425 182.612 221.452 182.572C221.998 181.761 222.734 181.097 223.596 180.639C224.459 180.18 225.421 179.94 226.398 179.941H230.526C231.504 179.941 232.467 180.182 233.331 180.641C234.194 181.101 234.931 181.766 235.477 182.577C235.505 182.618 235.525 182.664 235.534 182.712C235.544 182.761 235.545 182.811 235.535 182.859C235.525 182.908 235.506 182.954 235.478 182.995C235.45 183.036 235.414 183.07 235.373 183.097C235.311 183.136 235.238 183.156 235.165 183.154Z" fill="#263238"/>
<path d="M236.122 187.819C235.924 187.819 235.735 187.74 235.596 187.601C235.456 187.462 235.378 187.272 235.378 187.075V185.905C235.379 184.941 235.091 183.999 234.551 183.201C234.494 183.12 234.454 183.029 234.433 182.932C234.412 182.836 234.411 182.736 234.429 182.639C234.447 182.542 234.484 182.449 234.538 182.367C234.592 182.284 234.662 182.213 234.744 182.158C234.826 182.102 234.918 182.064 235.015 182.045C235.112 182.025 235.211 182.026 235.308 182.045C235.405 182.065 235.497 182.104 235.578 182.159C235.66 182.215 235.73 182.286 235.784 182.369C236.488 183.414 236.863 184.645 236.86 185.905V187.075C236.86 187.272 236.782 187.46 236.644 187.599C236.506 187.738 236.318 187.817 236.122 187.819Z" fill="#263238"/>
<path d="M220.896 191.084C220.507 191.084 220.134 190.93 219.859 190.655C219.584 190.38 219.43 190.007 219.43 189.618V187.283C219.43 186.894 219.584 186.521 219.859 186.246C220.134 185.971 220.507 185.817 220.896 185.817C221.285 185.817 221.658 185.971 221.933 186.246C222.208 186.521 222.362 186.894 222.362 187.283V189.618C222.361 190.007 222.206 190.379 221.931 190.653C221.657 190.928 221.285 191.083 220.896 191.084Z" fill="white" stroke="#263238" stroke-linecap="round" stroke-linejoin="round"/>
<path d="M221.047 185.817H220.745V191.079H221.047V185.817Z" fill="#877ACE" stroke="#263238" stroke-linecap="round" stroke-linejoin="round"/>
<path d="M237.318 187.283C237.318 186.473 236.661 185.817 235.851 185.817C235.041 185.817 234.385 186.473 234.385 187.283V189.613C234.385 190.423 235.041 191.079 235.851 191.079C236.661 191.079 237.318 190.423 237.318 189.613V187.283Z" fill="white" stroke="#263238" stroke-linecap="round" stroke-linejoin="round"/>
<path d="M236.002 185.817H235.7V191.079H236.002V185.817Z" fill="#877ACE" stroke="#263238" stroke-linecap="round" stroke-linejoin="round"/>
<path d="M228.452 185.338C228.968 185.336 229.476 185.206 229.93 184.959C230.384 184.712 230.769 184.357 231.052 183.924L231.691 182.936C230.677 182.376 229.536 182.087 228.378 182.095C227.22 182.103 226.083 182.409 225.077 182.983L226.034 184.179C226.325 184.54 226.693 184.831 227.112 185.032C227.53 185.232 227.988 185.337 228.452 185.338Z" fill="#877ACE" stroke="#263238" stroke-linecap="round" stroke-linejoin="round"/>
<path d="M228.504 191.74C228.564 191.74 228.613 191.691 228.613 191.63C228.613 191.57 228.564 191.521 228.504 191.521C228.443 191.521 228.394 191.57 228.394 191.63C228.394 191.691 228.443 191.74 228.504 191.74Z" fill="#263238"/>
<path d="M228.504 192.124C228.564 192.124 228.613 192.076 228.613 192.015C228.613 191.955 228.564 191.906 228.504 191.906C228.443 191.906 228.394 191.955 228.394 192.015C228.394 192.076 228.443 192.124 228.504 192.124Z" fill="#263238"/>
<path d="M228.181 191.953C228.209 191.944 228.232 191.925 228.245 191.9C228.259 191.875 228.262 191.845 228.254 191.818C228.243 191.79 228.223 191.768 228.198 191.755C228.172 191.741 228.142 191.738 228.114 191.745C228.087 191.754 228.065 191.773 228.051 191.798C228.038 191.823 228.034 191.852 228.041 191.88C228.045 191.894 228.052 191.907 228.061 191.919C228.071 191.93 228.082 191.94 228.095 191.947C228.109 191.953 228.123 191.957 228.138 191.958C228.152 191.96 228.167 191.958 228.181 191.953Z" fill="#263238"/>
<path d="M228.862 191.953C228.89 191.944 228.913 191.925 228.927 191.9C228.94 191.875 228.943 191.845 228.935 191.818C228.926 191.79 228.906 191.767 228.88 191.753C228.853 191.739 228.823 191.737 228.795 191.745C228.781 191.749 228.769 191.756 228.758 191.765C228.747 191.774 228.738 191.785 228.732 191.798C228.726 191.811 228.722 191.824 228.721 191.838C228.72 191.853 228.722 191.867 228.727 191.88C228.731 191.894 228.737 191.907 228.746 191.919C228.755 191.93 228.766 191.939 228.779 191.946C228.792 191.953 228.806 191.957 228.82 191.958C228.834 191.959 228.849 191.958 228.862 191.953Z" fill="#263238"/>
<path d="M173.321 214.152H214.698V187.84V182.952L209.804 187.84H173.321V214.152Z" fill="#877ACE" stroke="#263238" stroke-linecap="round" stroke-linejoin="round"/>
<path d="M200.949 193.924H210.688" stroke="#263238" stroke-linecap="round" stroke-linejoin="round"/>
<path d="M187.32 193.924H198.448" stroke="#263238" stroke-linecap="round" stroke-linejoin="round"/>
<path d="M178.974 193.924H185.37" stroke="#263238" stroke-linecap="round" stroke-linejoin="round"/>
<path d="M196.498 196.986H210.688" stroke="#263238" stroke-linecap="round" stroke-linejoin="round"/>
<path d="M178.974 196.986H193.996" stroke="#263238" stroke-linecap="round" stroke-linejoin="round"/>
<path d="M207.906 200.044H210.688" stroke="#263238" stroke-linecap="round" stroke-linejoin="round"/>
<path d="M192.327 200.044H205.681" stroke="#263238" stroke-linecap="round" stroke-linejoin="round"/>
<path d="M178.974 200.044H190.102" stroke="#263238" stroke-linecap="round" stroke-linejoin="round"/>
<path d="M200.949 202.55H210.688" stroke="#263238" stroke-linecap="round" stroke-linejoin="round"/>
<path d="M187.32 202.55H198.448" stroke="#263238" stroke-linecap="round" stroke-linejoin="round"/>
<path d="M178.974 202.55H185.37" stroke="#263238" stroke-linecap="round" stroke-linejoin="round"/>
<path d="M196.498 205.608H210.688" stroke="#263238" stroke-linecap="round" stroke-linejoin="round"/>
<path d="M178.974 205.608H193.996" stroke="#263238" stroke-linecap="round" stroke-linejoin="round"/>
<path d="M207.906 208.666H210.688" stroke="#263238" stroke-linecap="round" stroke-linejoin="round"/>
<path d="M192.327 208.666H205.681" stroke="#263238" stroke-linecap="round" stroke-linejoin="round"/>
<path d="M178.974 208.666H190.102" stroke="#263238" stroke-linecap="round" stroke-linejoin="round"/>
<path d="M235.56 28.9016H214.094C213.869 30.0904 213.237 31.1636 212.306 31.9362C211.375 32.7088 210.203 33.1325 208.993 33.1344H178.261C177.051 33.1325 175.88 32.7088 174.949 31.9362C174.018 31.1636 173.385 30.0904 173.16 28.9016H151.72C149.928 28.9016 148.208 29.6138 146.94 30.8816C145.673 32.1493 144.96 33.8687 144.96 35.6616V217.142C144.96 218.934 145.673 220.654 146.94 221.922C148.208 223.189 149.928 223.902 151.72 223.902H235.56C237.353 223.902 239.072 223.189 240.34 221.922C241.608 220.654 242.32 218.934 242.32 217.142V35.6616C242.32 33.8687 241.608 32.1493 240.34 30.8816C239.072 29.6138 237.353 28.9016 235.56 28.9016Z" stroke="#263238" stroke-width="2" stroke-linecap="round" stroke-linejoin="round"/>
<path d="M242.32 41.1476V35.6668C242.32 33.8739 241.608 32.1545 240.34 30.8868C239.072 29.619 237.353 28.9068 235.56 28.9068H214.094C213.869 30.0956 213.237 31.1688 212.306 31.9414C211.375 32.714 210.203 33.1377 208.993 33.1396H178.261C177.051 33.1375 175.879 32.713 174.947 31.9394C174.016 31.1657 173.384 30.0914 173.16 28.9016H151.72C149.928 28.9016 148.208 29.6138 146.94 30.8816C145.673 32.1493 144.96 33.8687 144.96 35.6616V41.1476H242.32Z" stroke="#263238" stroke-width="2" stroke-linecap="round" stroke-linejoin="round"/>
<path d="M153.878 33.8C153.878 35.1312 152.381 35.6096 152.376 36.6236V36.6912H153.826V37.1436H151.892V36.764C151.892 35.36 153.4 35.0584 153.4 33.8C153.4 33.3424 153.249 33.1032 152.88 33.1032C152.511 33.1032 152.36 33.3632 152.36 33.7532V34.1432H151.902V33.8C151.902 33.124 152.209 32.6768 152.89 32.6768C153.572 32.6768 153.878 33.124 153.878 33.8Z" fill="#263238"/>
<path d="M156.291 33.8V33.9144C156.313 34.1011 156.275 34.29 156.181 34.453C156.087 34.616 155.944 34.7444 155.771 34.8192C155.946 34.8945 156.091 35.0245 156.185 35.1897C156.278 35.3548 156.316 35.5461 156.291 35.7344V36.0724C156.291 36.7484 155.974 37.1904 155.298 37.1904C154.622 37.1904 154.305 36.7484 154.305 36.0724V35.7708H154.768V36.1036C154.768 36.504 154.929 36.7432 155.288 36.7432C155.646 36.7432 155.808 36.5092 155.808 36.062V35.724C155.808 35.2872 155.62 35.0792 155.251 35.0636H154.96V34.6268H155.251C155.328 34.6279 155.403 34.6122 155.473 34.5807C155.543 34.5492 155.604 34.5028 155.654 34.4447C155.704 34.3866 155.74 34.3183 155.76 34.2446C155.78 34.1709 155.784 34.0937 155.771 34.0184V33.8C155.771 33.3476 155.61 33.1136 155.251 33.1136C154.892 33.1136 154.731 33.358 154.731 33.7584V33.9872H154.268V33.8C154.268 33.124 154.586 32.6872 155.262 32.6872C155.938 32.6872 156.291 33.1188 156.291 33.8Z" fill="#263238"/>
<path d="M157.243 34.1276V34.7412H156.77V34.1276H157.243ZM157.243 36.53V37.1436H156.77V36.53H157.243Z" fill="#263238"/>
<path d="M158.241 34.5228C158.306 34.4073 158.401 34.312 158.517 34.2477C158.633 34.1834 158.764 34.1526 158.896 34.1588C159.463 34.1588 159.718 34.5748 159.718 35.1988V36.062C159.718 36.738 159.396 37.18 158.72 37.18C158.044 37.18 157.732 36.738 157.732 36.062V35.7656H158.189V36.0932C158.189 36.4936 158.356 36.7328 158.709 36.7328C159.063 36.7328 159.229 36.4936 159.229 36.0932V35.2456C159.229 34.8452 159.068 34.606 158.709 34.606C158.643 34.5995 158.577 34.6068 158.514 34.6277C158.451 34.6485 158.393 34.6823 158.344 34.7269C158.295 34.7715 158.256 34.8259 158.229 34.8866C158.203 34.9473 158.189 35.0129 158.189 35.0792V35.178H157.726L157.846 32.7288H159.588V33.1708H158.288L158.241 34.5228Z" fill="#263238"/>
<path d="M162.167 33.8V33.878H161.72V33.7636C161.72 33.3684 161.554 33.1344 161.2 33.1344C160.846 33.1344 160.68 33.3736 160.68 33.8468V34.84C160.731 34.6942 160.828 34.569 160.957 34.4835C161.085 34.3981 161.238 34.3571 161.392 34.3668C161.959 34.3668 162.214 34.7724 162.214 35.4068V36.0724C162.214 36.7484 161.881 37.1904 161.205 37.1904C160.529 37.1904 160.16 36.7432 160.16 36.0672V33.8C160.16 33.098 160.472 32.6612 161.174 32.6612C161.876 32.6612 162.167 33.1136 162.167 33.8ZM160.649 35.4484V36.1088C160.649 36.5092 160.815 36.7484 161.169 36.7484C161.522 36.7484 161.689 36.5092 161.689 36.1088V35.438C161.689 35.0428 161.517 34.8036 161.169 34.8036C160.82 34.8036 160.649 35.0428 160.649 35.438V35.4484Z" fill="#263238"/>
<path d="M216.668 33.982H215.42V37.0968H216.668V33.982Z" fill="#263238"/>
<path d="M218.332 33.358H217.084V37.0968H218.332V33.358Z" fill="#263238"/>
<path d="M219.991 32.916H218.743V37.0968H219.991V32.916Z" fill="#263238"/>
<path d="M221.655 32.1412H220.407V37.0968H221.655V32.1412Z" fill="#263238"/>
<path d="M237.073 37.0084H229.596V32.4428H237.073V37.0084ZM230.012 36.5976H236.657V32.8588H230.012V36.5976Z" fill="#263238"/>
<path d="M234.582 33.3112H230.636V36.1452H234.582V33.3112Z" fill="#263238"/>
<path d="M237.754 34.19H236.813V35.2664H237.754V34.19Z" fill="#263238"/>
<path d="M226.855 36.0152C226.806 36.0161 226.757 36.0035 226.715 35.9788C225.191 35.074 224.188 35.9112 224.146 35.9476C224.119 35.9751 224.086 35.9967 224.051 36.0111C224.015 36.0255 223.976 36.0323 223.938 36.0312C223.899 36.03 223.861 36.021 223.826 36.0045C223.791 35.9881 223.76 35.9646 223.735 35.9356C223.709 35.9066 223.69 35.8726 223.679 35.8358C223.667 35.7991 223.663 35.7603 223.667 35.7219C223.671 35.6835 223.682 35.6463 223.701 35.6127C223.72 35.579 223.746 35.5497 223.777 35.5264C223.829 35.4796 225.118 34.3772 227.001 35.4952C227.063 35.5349 227.108 35.5971 227.125 35.6688C227.142 35.7405 227.131 35.8162 227.094 35.88C227.07 35.9215 227.035 35.9558 226.993 35.9795C226.951 36.0033 226.903 36.0156 226.855 36.0152Z" fill="#263238"/>
<path d="M227.417 35.0792C227.367 35.0782 227.319 35.0639 227.276 35.0376C225.077 33.7324 223.595 34.996 223.579 35.0064C223.552 35.0303 223.52 35.0486 223.486 35.0602C223.451 35.0718 223.415 35.0766 223.379 35.0742C223.343 35.0718 223.307 35.0622 223.275 35.0461C223.242 35.0301 223.213 35.0077 223.189 34.9804C223.165 34.9531 223.147 34.9213 223.135 34.8869C223.124 34.8526 223.119 34.8162 223.121 34.78C223.124 34.7438 223.133 34.7084 223.149 34.6759C223.166 34.6433 223.188 34.6143 223.215 34.5904C223.215 34.5904 225.014 33.0304 227.562 34.5592C227.626 34.598 227.671 34.6602 227.689 34.7323C227.706 34.8044 227.694 34.8805 227.656 34.944C227.631 34.9851 227.596 35.0192 227.554 35.0429C227.512 35.0665 227.465 35.079 227.417 35.0792Z" fill="#263238"/>
<path d="M227.932 33.9924C227.88 33.9914 227.83 33.9771 227.786 33.9508C224.999 32.2972 223.148 33.8572 223.07 33.9248C223.013 33.9676 222.942 33.9873 222.872 33.9801C222.801 33.9728 222.736 33.9392 222.689 33.8858C222.643 33.8325 222.618 33.7634 222.62 33.6925C222.622 33.6216 222.651 33.5541 222.7 33.5036C222.726 33.5036 224.926 31.6004 228.072 33.4724C228.104 33.4912 228.132 33.516 228.154 33.5455C228.176 33.575 228.192 33.6086 228.201 33.6443C228.21 33.6801 228.212 33.7173 228.207 33.7538C228.202 33.7903 228.19 33.8255 228.171 33.8572C228.146 33.898 228.11 33.9318 228.069 33.9554C228.027 33.9791 227.98 33.9918 227.932 33.9924Z" fill="#263238"/>
<path d="M226.013 36.4832C226.014 36.6225 225.973 36.7589 225.897 36.8751C225.82 36.9914 225.71 37.0822 225.582 37.1359C225.453 37.1897 225.312 37.2041 225.175 37.1771C225.038 37.1502 224.913 37.0833 224.814 36.9848C224.716 36.8863 224.649 36.7607 224.622 36.6241C224.595 36.4874 224.609 36.3458 224.663 36.2173C224.717 36.0889 224.808 35.9793 224.924 35.9025C225.04 35.8258 225.177 35.7854 225.316 35.7864C225.501 35.7864 225.678 35.8598 225.809 35.9905C225.939 36.1212 226.013 36.2984 226.013 36.4832Z" fill="#263238"/>
<path d="M234.52 232.185H245.44" stroke="#263238" stroke-linecap="round" stroke-linejoin="round"/>
<path d="M28.6 232.185H230.88" stroke="#263238" stroke-linecap="round" stroke-linejoin="round"/>
<path d="M14.378 232.185H21.84" stroke="#263238" stroke-linecap="round" stroke-linejoin="round"/>
<path d="M89.2736 162.157H81.328V231.213H89.2736V162.157Z" fill="#263238" stroke="#263238" stroke-linecap="round" stroke-linejoin="round"/>
<path d="M26.2704 187.164V192.02H57.9384V187.164H26.2704Z" fill="#263238" stroke="#263238" stroke-linecap="round" stroke-linejoin="round"/>
<path d="M29.5256 170.399H24.6688V189.831H29.5256V170.399Z" fill="#263238" stroke="#263238" stroke-linecap="round" stroke-linejoin="round"/>
<path d="M31.5484 189.914C31.5484 190.499 31.4332 191.077 31.2095 191.617C30.9857 192.157 30.6578 192.647 30.2444 193.06C29.831 193.473 29.3402 193.8 28.8002 194.023C28.2602 194.247 27.6815 194.361 27.0972 194.36C26.9516 194.36 26.806 194.36 26.6656 194.36C25.8557 194.28 25.0832 193.98 24.4322 193.491C23.7812 193.003 23.2766 192.345 22.9732 191.59C22.6698 190.835 22.5793 190.011 22.7114 189.208C22.8436 188.405 23.1934 187.653 23.7228 187.035C24.2522 186.417 24.941 185.956 25.7142 185.702C26.4874 185.448 27.3154 185.411 28.1083 185.594C28.9011 185.778 29.6285 186.176 30.2111 186.744C30.7938 187.312 31.2096 188.029 31.4132 188.817C31.502 189.176 31.5474 189.545 31.5484 189.914Z" fill="white" stroke="#263238" stroke-linecap="round" stroke-linejoin="round"/>
<path d="M31.876 173.394C31.8732 174.573 31.4032 175.703 30.5689 176.537C29.7346 177.37 28.604 177.839 27.4248 177.84C27.2792 177.84 27.1336 177.84 26.988 177.84C26.1777 177.762 25.4042 177.464 24.7516 176.977C24.0991 176.491 23.5925 175.834 23.2869 175.08C22.9814 174.325 22.8886 173.502 23.0187 172.698C23.1487 171.894 23.4966 171.142 24.0246 170.522C24.5525 169.903 25.2403 169.44 26.013 169.184C26.7857 168.928 27.6139 168.889 28.4073 169.07C29.2008 169.252 29.9291 169.648 30.5132 170.215C31.0973 170.782 31.5147 171.499 31.72 172.286C31.8199 172.647 31.8723 173.02 31.876 173.394Z" fill="white" stroke="#263238" stroke-linecap="round" stroke-linejoin="round"/>
<path d="M39.846 161.33L33.372 164.816L34.7131 167.306L41.1871 163.821L39.846 161.33Z" fill="#263238" stroke="#263238" stroke-linecap="round" stroke-linejoin="round"/>
<path d="M42.2604 164.091L39.0728 165.807L37.0344 162.027L40.2272 160.306C40.4777 160.168 40.7532 160.082 41.0374 160.053C41.3216 160.024 41.6088 160.052 41.882 160.135C42.1553 160.218 42.4091 160.355 42.6286 160.538C42.8481 160.721 43.0288 160.946 43.16 161.2C43.421 161.703 43.4728 162.289 43.3044 162.83C43.136 163.372 42.7608 163.825 42.2604 164.091Z" fill="white" stroke="#263238" stroke-linecap="round" stroke-linejoin="round"/>
<path d="M28.288 148.06L28.0592 161.247L25.2356 161.2L25.4592 148.013L28.288 148.06Z" fill="#263238" stroke="#263238" stroke-linecap="round" stroke-linejoin="round"/>
<path d="M29.0524 147.264L28.9952 150.904L24.7 150.8L24.7572 147.16C24.762 146.878 24.8222 146.6 24.9345 146.341C25.0469 146.082 25.2091 145.848 25.4119 145.652C25.6147 145.456 25.8541 145.302 26.1165 145.198C26.3789 145.095 26.6592 145.044 26.9412 145.049C27.2262 145.053 27.5074 145.114 27.7686 145.228C28.0297 145.342 28.2655 145.507 28.4621 145.713C28.6587 145.919 28.8122 146.163 28.9136 146.429C29.0149 146.695 29.0621 146.979 29.0524 147.264Z" fill="white" stroke="#263238" stroke-linecap="round" stroke-linejoin="round"/>
<path d="M38.8544 152.844L32.6508 164.481L30.1548 163.155L36.3532 151.518L38.8544 152.844Z" fill="#263238" stroke="#263238" stroke-linecap="round" stroke-linejoin="round"/>
<path d="M39.8944 152.485L38.194 155.683L34.4032 153.67L36.0984 150.467C36.3666 149.966 36.8222 149.591 37.3659 149.424C37.9095 149.258 38.4969 149.313 39 149.578C39.5036 149.845 39.8806 150.301 40.0483 150.846C40.216 151.391 40.1606 151.981 39.8944 152.485Z" fill="white" stroke="#263238" stroke-linecap="round" stroke-linejoin="round"/>
<path d="M18.2624 152.792L24.4088 164.46L21.9076 165.781L15.7612 154.112L18.2624 152.792Z" fill="#263238" stroke="#263238" stroke-linecap="round" stroke-linejoin="round"/>
<path d="M24.0292 161.252C23.9381 160.712 23.6888 160.212 23.3131 159.814C22.9374 159.416 22.452 159.138 21.9184 159.016C21.3849 158.894 20.8271 158.933 20.3156 159.128C19.8042 159.323 19.3621 159.665 19.0454 160.112C18.7286 160.558 18.5514 161.088 18.5361 161.636C18.5209 162.183 18.6683 162.722 18.9597 163.185C19.2511 163.649 19.6734 164.015 20.1731 164.239C20.6729 164.462 21.2277 164.532 21.7672 164.44C22.4895 164.316 23.1334 163.911 23.5575 163.314C23.9816 162.716 24.1512 161.975 24.0292 161.252Z" fill="white" stroke="#263238" stroke-linecap="round" stroke-linejoin="round"/>
<path d="M26.7332 161.616C28.261 161.616 29.4996 160.377 29.4996 158.85C29.4996 157.322 28.261 156.083 26.7332 156.083C25.2054 156.083 23.9668 157.322 23.9668 158.85C23.9668 160.377 25.2054 161.616 26.7332 161.616Z" fill="white" stroke="#263238" stroke-linecap="round" stroke-linejoin="round"/>
<path d="M35.7604 160.446C35.8436 159.905 35.7646 159.352 35.5332 158.856C35.3018 158.36 34.9284 157.943 34.4604 157.66C33.9924 157.376 33.4508 157.237 32.904 157.262C32.3572 157.286 31.8299 157.471 31.3888 157.795C30.9476 158.119 30.6125 158.567 30.4258 159.081C30.239 159.596 30.2091 160.154 30.3397 160.686C30.4704 161.217 30.7558 161.698 31.1597 162.067C31.5637 162.436 32.0681 162.678 32.6092 162.76C32.9681 162.815 33.3344 162.799 33.6871 162.713C34.0399 162.627 34.3721 162.472 34.6648 162.257C34.9575 162.042 35.205 161.771 35.393 161.46C35.581 161.15 35.7058 160.805 35.7604 160.446Z" fill="white" stroke="#263238" stroke-linecap="round" stroke-linejoin="round"/>
<path d="M18.5484 151.726L20.2436 154.929L16.4476 156.941L14.7524 153.733C14.62 153.484 14.5381 153.211 14.5114 152.93C14.4847 152.649 14.5137 152.366 14.5968 152.096C14.6799 151.827 14.8155 151.576 14.9956 151.359C15.1758 151.142 15.3971 150.963 15.6468 150.831C16.1505 150.567 16.7384 150.512 17.2821 150.68C17.8258 150.847 18.2811 151.223 18.5484 151.726Z" fill="white" stroke="#263238" stroke-linecap="round" stroke-linejoin="round"/>
<path d="M35.23 166.592C35.23 168.661 34.4082 170.645 32.9455 172.108C31.4827 173.571 29.4987 174.392 27.43 174.392C27.17 174.392 26.91 174.392 26.6656 174.361C25.2467 174.221 23.8936 173.694 22.7532 172.838C21.6128 171.982 20.7288 170.83 20.1973 169.507C19.6658 168.184 19.5071 166.74 19.7385 165.333C19.9699 163.926 20.5825 162.61 21.5097 161.527C22.437 160.444 23.6434 159.635 24.9978 159.19C26.3523 158.744 27.8029 158.679 29.1921 159C30.5813 159.321 31.8559 160.017 32.8773 161.012C33.8987 162.006 34.6279 163.262 34.9856 164.642C35.1469 165.28 35.229 165.935 35.23 166.592Z" fill="white" stroke="#263238" stroke-linecap="round" stroke-linejoin="round"/>
<path d="M35.23 166.592C35.23 168.661 34.4082 170.645 32.9454 172.108C31.4826 173.571 29.4987 174.392 27.43 174.392C27.17 174.392 26.91 174.392 26.6656 174.361C26.3668 173.207 26.3364 172 26.577 170.832C26.8175 169.665 27.3225 168.568 28.0531 167.626C28.7837 166.684 29.7205 165.922 30.7916 165.398C31.8627 164.875 33.0395 164.604 34.2316 164.606C34.4864 164.606 34.7516 164.606 34.996 164.642C35.1538 165.28 35.2324 165.935 35.23 166.592Z" fill="white" stroke="#263238" stroke-linecap="round" stroke-linejoin="round"/>
<path d="M74.506 190.055C75.8304 184.395 72.3158 178.733 66.656 177.409C60.9962 176.085 55.3344 179.599 54.01 185.259C52.6857 190.919 56.2002 196.581 61.86 197.905C67.5198 199.229 73.1816 195.715 74.506 190.055Z" fill="white" stroke="#263238" stroke-linecap="round" stroke-linejoin="round"/>
<path d="M66.2134 192.364C68.8136 191.279 70.0424 188.292 68.9579 185.692C67.8734 183.092 64.8863 181.863 62.2861 182.947C59.6859 184.032 58.4572 187.019 59.5417 189.619C60.6262 192.219 63.6132 193.448 66.2134 192.364Z" fill="#263238" stroke="#263238" stroke-linecap="round" stroke-linejoin="round"/>
<path d="M62.4468 232.185H109.143L109.814 229.024C110.083 227.761 109.841 226.443 109.141 225.357C108.442 224.272 107.341 223.507 106.08 223.231C99.4604 221.744 85.1292 221.208 85.1292 221.208C81.6764 221.317 72.0668 221.728 65.4472 223.236C64.1947 223.522 63.1051 224.289 62.4142 225.373C61.7233 226.456 61.4865 227.767 61.7552 229.024L62.4468 232.185Z" fill="white" stroke="#263238" stroke-linecap="round" stroke-linejoin="round"/>
<path d="M97.032 221.978C91.052 221.426 85.1448 221.208 85.1448 221.208C82.9712 221.276 78.3536 221.468 73.58 221.978C74.9736 226.736 79.6952 230.24 85.306 230.24C90.9168 230.24 95.6384 226.72 97.032 221.978Z" fill="#877ACE" stroke="#263238" stroke-linecap="round" stroke-linejoin="round"/>
<path d="M134.079 209.888L136.983 205.996L111.602 187.057L108.698 190.949L134.079 209.888Z" fill="#263238" stroke="#263238" stroke-linecap="round" stroke-linejoin="round"/>
<path d="M121.448 221.379L125.341 224.284L136.962 208.71L133.069 205.805L121.448 221.379Z" fill="#263238" stroke="#263238" stroke-linecap="round" stroke-linejoin="round"/>
<path d="M131.492 204.526C131.843 204.057 132.282 203.661 132.785 203.362C133.288 203.062 133.845 202.865 134.425 202.781C135.004 202.697 135.595 202.728 136.162 202.872C136.73 203.016 137.263 203.271 137.732 203.622L138.07 203.897C138.672 204.446 139.111 205.149 139.341 205.93C139.571 206.71 139.582 207.539 139.373 208.326C139.165 209.113 138.744 209.828 138.158 210.392C137.572 210.957 136.842 211.35 136.048 211.528C135.254 211.707 134.426 211.665 133.654 211.406C132.882 211.146 132.197 210.681 131.671 210.059C131.146 209.437 130.801 208.684 130.674 207.88C130.547 207.075 130.643 206.252 130.952 205.499C131.091 205.154 131.273 204.827 131.492 204.526Z" fill="white" stroke="#263238" stroke-linecap="round" stroke-linejoin="round"/>
<path d="M121.337 216.97C121.996 215.991 123.017 215.314 124.176 215.088C125.334 214.861 126.535 215.104 127.514 215.764C127.634 215.842 127.748 215.93 127.863 216.018C128.491 216.537 128.964 217.217 129.232 217.986C129.5 218.754 129.552 219.582 129.383 220.378C129.213 221.174 128.829 221.909 128.271 222.502C127.713 223.094 127.003 223.523 126.219 223.741C125.435 223.958 124.606 223.956 123.822 223.736C123.038 223.515 122.33 223.083 121.775 222.488C121.22 221.893 120.838 221.157 120.672 220.36C120.506 219.563 120.561 218.736 120.832 217.968C120.958 217.616 121.128 217.281 121.337 216.97Z" fill="white" stroke="#263238" stroke-linecap="round" stroke-linejoin="round"/>
<path d="M107.971 222.541L115.288 223.26L115.565 220.444L108.247 219.726L107.971 222.541Z" fill="#263238" stroke="#263238" stroke-linecap="round" stroke-linejoin="round"/>
<path d="M107.526 218.92L111.134 219.274L110.713 223.548L107.104 223.194C106.538 223.139 106.016 222.861 105.654 222.421C105.292 221.981 105.12 221.416 105.175 220.849C105.232 220.282 105.511 219.76 105.952 219.399C106.392 219.037 106.958 218.865 107.526 218.92Z" fill="white" stroke="#263238" stroke-linecap="round" stroke-linejoin="round"/>
<path d="M114.754 220.74C115.325 219.888 116.059 219.158 116.913 218.59C117.768 218.022 118.725 217.629 119.732 217.431C120.739 217.234 121.774 217.238 122.779 217.441C123.785 217.645 124.74 218.045 125.59 218.618C125.804 218.764 126.006 218.915 126.204 219.076C127.303 219.985 128.133 221.177 128.602 222.524C129.07 223.871 129.161 225.321 128.864 226.715C128.566 228.11 127.892 229.397 126.915 230.435C125.937 231.474 124.693 232.224 123.319 232.605C121.945 232.986 120.492 232.983 119.119 232.596C117.747 232.209 116.506 231.453 115.533 230.411C114.56 229.368 113.891 228.079 113.6 226.683C113.308 225.287 113.405 223.837 113.88 222.492C114.095 221.873 114.389 221.285 114.754 220.74Z" fill="white" stroke="#263238" stroke-linecap="round" stroke-linejoin="round"/>
<path d="M106.35 228.842L116.022 221.608L117.577 223.683L107.905 230.911L106.35 228.842Z" fill="#263238" stroke="#263238" stroke-linecap="round" stroke-linejoin="round"/>
<path d="M105.347 228.732L108.004 226.72L110.365 229.84L107.708 231.832C107.29 232.144 106.766 232.278 106.25 232.204C105.735 232.129 105.269 231.853 104.957 231.436C104.657 231.024 104.53 230.51 104.603 230.005C104.676 229.5 104.943 229.044 105.347 228.732Z" fill="white" stroke="#263238" stroke-linecap="round" stroke-linejoin="round"/>
<path d="M118.841 223.839C118.964 223.305 118.925 222.747 118.73 222.235C118.535 221.722 118.193 221.28 117.746 220.963C117.299 220.646 116.768 220.468 116.22 220.453C115.672 220.439 115.132 220.587 114.669 220.879C114.205 221.172 113.839 221.595 113.617 222.096C113.394 222.597 113.325 223.152 113.419 223.692C113.513 224.232 113.765 224.732 114.143 225.128C114.522 225.525 115.009 225.8 115.544 225.919C116.257 226.078 117.003 225.948 117.621 225.559C118.239 225.169 118.677 224.551 118.841 223.839Z" fill="white" stroke="#263238" stroke-linecap="round" stroke-linejoin="round"/>
<path d="M123.968 236.111L125.403 226.19L127.53 226.491L126.1 236.413L123.968 236.111Z" fill="#263238" stroke="#263238" stroke-linecap="round" stroke-linejoin="round"/>
<path d="M123.318 236.636L123.708 233.906L126.937 234.369L126.547 237.094C126.517 237.306 126.446 237.511 126.337 237.696C126.228 237.88 126.083 238.042 125.912 238.171C125.74 238.3 125.545 238.394 125.338 238.447C125.13 238.5 124.914 238.513 124.701 238.482C124.273 238.421 123.887 238.192 123.628 237.845C123.369 237.499 123.257 237.065 123.318 236.636Z" fill="white" stroke="#263238" stroke-linecap="round" stroke-linejoin="round"/>
<path d="M128.362 225.841C128.117 225.46 127.765 225.159 127.349 224.978C126.934 224.797 126.474 224.743 126.028 224.822C125.582 224.902 125.169 225.113 124.843 225.427C124.516 225.741 124.29 226.145 124.192 226.588C124.095 227.03 124.131 227.492 124.296 227.914C124.461 228.336 124.747 228.7 125.119 228.96C125.491 229.219 125.931 229.363 126.384 229.372C126.837 229.382 127.283 229.257 127.665 229.013C128.178 228.685 128.539 228.166 128.67 227.571C128.8 226.977 128.69 226.354 128.362 225.841Z" fill="white" stroke="#263238" stroke-linecap="round" stroke-linejoin="round"/>
<path d="M114.395 234.79L120.843 224.578L123.032 225.95L116.589 236.168L114.395 234.79Z" fill="#263238" stroke="#263238" stroke-linecap="round" stroke-linejoin="round"/>
<path d="M113.422 235.04L115.185 232.232L118.518 234.312L116.75 237.125C116.472 237.565 116.031 237.877 115.523 237.993C115.016 238.109 114.483 238.02 114.041 237.744C113.601 237.467 113.289 237.027 113.173 236.52C113.057 236.013 113.147 235.481 113.422 235.04Z" fill="white" stroke="#263238" stroke-linecap="round" stroke-linejoin="round"/>
<path d="M124.28 225.649C124.203 225.107 123.967 224.601 123.601 224.194C123.236 223.787 122.758 223.497 122.228 223.362C121.698 223.227 121.14 223.253 120.624 223.435C120.109 223.618 119.659 223.95 119.332 224.388C119.005 224.827 118.816 225.353 118.789 225.899C118.761 226.445 118.896 226.988 119.178 227.457C119.459 227.926 119.873 228.301 120.367 228.535C120.862 228.768 121.415 228.85 121.956 228.769C122.677 228.662 123.327 228.274 123.762 227.689C124.198 227.104 124.384 226.371 124.28 225.649Z" fill="white" stroke="#263238" stroke-linecap="round" stroke-linejoin="round"/>
<path d="M112.335 196.69C117.222 193.543 118.634 187.031 115.488 182.143C112.342 177.255 105.829 175.844 100.941 178.99C96.0536 182.136 94.6419 188.649 97.7882 193.536C100.934 198.424 107.447 199.836 112.335 196.69Z" fill="white" stroke="#263238" stroke-linecap="round" stroke-linejoin="round"/>
<path d="M111.279 189.97C112.453 187.409 111.33 184.381 108.769 183.207C106.208 182.032 103.18 183.156 102.005 185.717C100.831 188.278 101.955 191.306 104.515 192.48C107.076 193.655 110.104 192.531 111.279 189.97Z" fill="#263238" stroke="#263238" stroke-linecap="round" stroke-linejoin="round"/>
<path d="M85.3008 166.982C94.6372 166.982 102.206 159.414 102.206 150.077C102.206 140.741 94.6372 133.172 85.3008 133.172C75.9643 133.172 68.3956 140.741 68.3956 150.077C68.3956 159.414 75.9643 166.982 85.3008 166.982Z" fill="#877ACE" stroke="#263238" stroke-linecap="round" stroke-linejoin="round"/>
<path d="M109.47 161.335C113.101 156.783 115.373 151.299 116.025 145.514C116.678 139.728 115.684 133.876 113.158 128.63C110.632 123.384 106.676 118.958 101.747 115.86C96.8167 112.763 91.1127 111.119 85.2904 111.119C79.4681 111.119 73.7641 112.763 68.8343 115.86C63.9045 118.958 59.9491 123.384 57.4232 128.63C54.8972 133.876 53.9032 139.728 54.5555 145.514C55.2078 151.299 57.4799 156.783 61.1104 161.335H109.47Z" fill="white" stroke="#263238" stroke-linecap="round" stroke-linejoin="round"/>
<path d="M104.218 130.374H65.6032C63.254 130.374 61.3496 132.279 61.3496 134.628V148.314C61.3496 150.664 63.254 152.568 65.6032 152.568H104.218C106.568 152.568 108.472 150.664 108.472 148.314V134.628C108.472 132.279 106.568 130.374 104.218 130.374Z" fill="#877ACE" stroke="#263238" stroke-linecap="round" stroke-linejoin="round"/>
<path d="M66.4456 140.572C66.9563 139.142 67.8871 137.899 69.1159 137.008C70.3448 136.116 71.8144 135.616 73.3322 135.574C74.85 135.532 76.3451 135.949 77.6216 136.771C78.898 137.594 79.8963 138.782 80.4856 140.182" stroke="#263238" stroke-width="5" stroke-linecap="round" stroke-linejoin="round"/>
<path d="M89.7364 140.572C90.2471 139.142 91.1779 137.899 92.4067 137.008C93.6356 136.116 95.1052 135.616 96.623 135.574C98.1407 135.532 99.6358 135.949 100.912 136.771C102.189 137.594 103.187 138.782 103.776 140.182" stroke="#263238" stroke-width="5" stroke-linecap="round" stroke-linejoin="round"/>
<path d="M81.224 145.714C81.3545 146.746 81.8568 147.694 82.6365 148.381C83.4163 149.068 84.42 149.447 85.4594 149.447C86.4988 149.447 87.5025 149.068 88.2823 148.381C89.062 147.694 89.5643 146.746 89.6948 145.714H81.224Z" fill="white" stroke="#263238" stroke-linecap="round" stroke-linejoin="round"/>
<path d="M125.32 147.472C124.462 147.472 123.639 147.131 123.033 146.525C122.426 145.918 122.086 145.095 122.086 144.238V136.88C122.085 136.454 122.168 136.033 122.33 135.64C122.493 135.247 122.731 134.89 123.031 134.589C123.331 134.288 123.688 134.05 124.081 133.887C124.474 133.724 124.895 133.64 125.32 133.64C125.745 133.639 126.166 133.722 126.559 133.885C126.952 134.047 127.31 134.285 127.61 134.586C127.911 134.886 128.15 135.243 128.313 135.635C128.476 136.028 128.56 136.449 128.56 136.874V144.232C128.56 144.658 128.477 145.08 128.314 145.473C128.152 145.866 127.913 146.224 127.612 146.525C127.311 146.826 126.954 147.064 126.561 147.227C126.167 147.389 125.746 147.473 125.32 147.472Z" fill="#263238" stroke="#263238" stroke-linecap="round" stroke-linejoin="round"/>
<path d="M44.3976 147.472C43.9724 147.473 43.5513 147.39 43.1583 147.227C42.7653 147.065 42.4081 146.827 42.1072 146.527C41.8063 146.226 41.5676 145.869 41.4047 145.477C41.2419 145.084 41.158 144.663 41.158 144.238V136.88C41.1573 136.454 41.2407 136.032 41.4032 135.639C41.5658 135.246 41.8044 134.888 42.1054 134.587C42.4063 134.286 42.7637 134.048 43.1571 133.885C43.5504 133.723 43.972 133.639 44.3976 133.64C44.8224 133.64 45.243 133.724 45.6354 133.886C46.0278 134.049 46.3843 134.287 46.6847 134.587C46.985 134.888 47.2233 135.244 47.3858 135.637C47.5484 136.029 47.632 136.45 47.632 136.874V144.232C47.6327 144.658 47.5496 145.079 47.3873 145.472C47.2251 145.865 46.9869 146.222 46.6865 146.523C46.3861 146.824 46.0293 147.062 45.6366 147.225C45.2438 147.388 44.8228 147.472 44.3976 147.472Z" fill="#263238" stroke="#263238" stroke-linecap="round" stroke-linejoin="round"/>
<path d="M54.7664 114.27C51.9054 118.497 50.38 123.486 50.388 128.591V133.936" stroke="#263238" stroke-width="14" stroke-linecap="round" stroke-linejoin="round"/>
<path d="M116.168 114.291C113.827 110.803 110.663 107.944 106.956 105.968C103.248 103.992 99.1115 102.959 94.9104 102.96H76.0084C71.8132 102.957 67.6815 103.986 63.9773 105.955C60.2731 107.925 57.11 110.775 54.7664 114.254" stroke="#263238" stroke-width="7" stroke-linecap="round" stroke-linejoin="round"/>
<path d="M120.526 133.936V128.591C120.534 123.496 119.016 118.515 116.168 114.291" stroke="#263238" stroke-width="14" stroke-linecap="round" stroke-linejoin="round"/>
<path d="M52.9672 128.18H48.6304C46.1203 128.18 44.0856 130.215 44.0856 132.725V147.748C44.0856 150.258 46.1203 152.292 48.6304 152.292H52.9672C55.4772 152.292 57.512 150.258 57.512 147.748V132.725C57.512 130.215 55.4772 128.18 52.9672 128.18Z" fill="white" stroke="#263238" stroke-linecap="round" stroke-linejoin="round"/>
<path d="M51.4852 128.18H50.1176V152.292H51.4852V128.18Z" fill="#877ACE" stroke="#263238" stroke-linecap="round" stroke-linejoin="round"/>
<path d="M121.462 128.18H117.125C114.615 128.18 112.58 130.215 112.58 132.725V147.748C112.58 150.258 114.615 152.292 117.125 152.292H121.462C123.972 152.292 126.006 150.258 126.006 147.748V132.725C126.006 130.215 123.972 128.18 121.462 128.18Z" fill="white" stroke="#263238" stroke-linecap="round" stroke-linejoin="round"/>
<path d="M119.98 128.18H118.612V152.292H119.98V128.18Z" fill="#877ACE" stroke="#263238" stroke-linecap="round" stroke-linejoin="round"/>
<path d="M85.41 125.991C87.7788 125.991 90.11 125.399 92.191 124.267C94.2719 123.135 96.0363 121.5 97.3232 119.512L100.256 114.972C95.6086 112.405 90.3787 111.079 85.0699 111.12C79.7612 111.161 74.5524 112.568 69.9452 115.206L74.36 120.687C75.6881 122.341 77.3702 123.676 79.2826 124.594C81.1949 125.512 83.2888 125.989 85.41 125.991Z" fill="#877ACE" stroke="#263238" stroke-linecap="round" stroke-linejoin="round"/>
<path d="M86.1432 154.814C86.1432 154.712 86.1127 154.611 86.0556 154.526C85.9984 154.44 85.9172 154.373 85.8222 154.334C85.7272 154.295 85.6226 154.284 85.5218 154.304C85.4209 154.324 85.3282 154.374 85.2555 154.447C85.1828 154.519 85.1333 154.612 85.1132 154.713C85.0931 154.814 85.1034 154.918 85.1428 155.013C85.1821 155.108 85.2488 155.19 85.3343 155.247C85.4198 155.304 85.5204 155.334 85.6232 155.334C85.7611 155.334 85.8934 155.28 85.9909 155.182C86.0884 155.085 86.1432 154.952 86.1432 154.814Z" fill="#263238"/>
<path d="M86.1432 156.562C86.1432 156.459 86.1127 156.358 86.0556 156.273C85.9984 156.187 85.9172 156.121 85.8222 156.081C85.7272 156.042 85.6226 156.032 85.5218 156.052C85.4209 156.072 85.3282 156.121 85.2555 156.194C85.1828 156.267 85.1333 156.359 85.1132 156.46C85.0931 156.561 85.1034 156.666 85.1428 156.761C85.1821 156.856 85.2488 156.937 85.3343 156.994C85.4198 157.051 85.5204 157.082 85.6232 157.082C85.7611 157.082 85.8934 157.027 85.9909 156.929C86.0884 156.832 86.1432 156.7 86.1432 156.562Z" fill="#263238"/>
<path d="M84.162 156.291C84.257 156.23 84.3294 156.139 84.3683 156.033C84.4071 155.927 84.4104 155.811 84.3774 155.703C84.3445 155.595 84.2773 155.5 84.1858 155.434C84.0944 155.367 83.9838 155.332 83.8708 155.334C83.7758 155.396 83.7034 155.486 83.6645 155.592C83.6257 155.699 83.6224 155.815 83.6553 155.923C83.6883 156.031 83.7555 156.125 83.8469 156.192C83.9384 156.258 84.049 156.293 84.162 156.291Z" fill="#263238"/>
<path d="M87.2872 156.291C87.3676 156.29 87.4467 156.27 87.518 156.233C87.5894 156.195 87.6512 156.142 87.6985 156.077C87.7459 156.012 87.7774 155.937 87.7908 155.858C87.8041 155.778 87.7989 155.697 87.7755 155.62C87.7521 155.543 87.7111 155.472 87.6558 155.414C87.6005 155.355 87.5324 155.311 87.4568 155.283C87.3813 155.255 87.3003 155.246 87.2204 155.254C87.1404 155.263 87.0636 155.291 86.996 155.334C86.9155 155.336 86.8365 155.356 86.7651 155.393C86.6938 155.43 86.632 155.483 86.5846 155.548C86.5373 155.614 86.5057 155.689 86.4924 155.768C86.479 155.847 86.4843 155.929 86.5077 156.006C86.5311 156.083 86.5721 156.153 86.6274 156.212C86.6827 156.27 86.7508 156.315 86.8263 156.343C86.9019 156.37 86.9828 156.38 87.0628 156.371C87.1428 156.362 87.2196 156.335 87.2872 156.291Z" fill="#263238"/>
<path d="M106.08 174.325C99.4604 172.832 85.1292 172.297 85.1292 172.297C81.6764 172.406 72.0668 172.817 65.4472 174.33C64.194 174.615 63.1036 175.382 62.4124 176.465C61.7212 177.549 61.4851 178.861 61.7552 180.118L67.886 208.801C68.1872 210.192 68.9547 211.438 70.0613 212.332C71.1678 213.227 72.547 213.717 73.97 213.72H97.604C99.027 213.717 100.406 213.227 101.513 212.332C102.619 211.438 103.387 210.192 103.688 208.801L109.814 180.118C110.083 178.855 109.841 177.537 109.141 176.451C108.442 175.366 107.341 174.601 106.08 174.325Z" fill="white" stroke="#263238" stroke-linecap="round" stroke-linejoin="round"/>
<path d="M103.064 173.774C95.8828 172.702 85.1448 172.297 85.1448 172.297C79.8871 172.447 74.6414 172.881 69.4304 173.597L76.3776 213.72H95.2588L103.064 173.774Z" fill="#877ACE" stroke="#263238" stroke-linecap="round" stroke-linejoin="round"/>
<path d="M91.3432 181.017H79.8408C77.4916 181.017 75.5872 182.922 75.5872 185.271V190.887C75.5872 193.236 77.4916 195.14 79.8408 195.14H91.3432C93.6924 195.14 95.5968 193.236 95.5968 190.887V185.271C95.5968 182.922 93.6924 181.017 91.3432 181.017Z" fill="white" stroke="#263238" stroke-linecap="round" stroke-linejoin="round"/>
<path d="M82.2328 186.836H78.9932V190.076H82.2328V186.836Z" fill="white" stroke="#263238" stroke-linecap="round" stroke-linejoin="round"/>
<path d="M87.2092 186.836H83.9696V190.076H87.2092V186.836Z" fill="white" stroke="#263238" stroke-linecap="round" stroke-linejoin="round"/>
<path d="M92.1908 186.836H88.9512V190.076H92.1908V186.836Z" fill="white" stroke="#263238" stroke-linecap="round" stroke-linejoin="round"/>
<path d="M40.0712 204.651H97.708C98.3976 204.651 99.0589 204.925 99.5465 205.413C100.034 205.9 100.308 206.562 100.308 207.251V239.632H37.4712V207.251C37.4712 206.562 37.7451 205.9 38.2327 205.413C38.7203 204.925 39.3816 204.651 40.0712 204.651Z" fill="white" stroke="#263238" stroke-linecap="round" stroke-linejoin="round"/>
<path d="M100.308 216.289C92.4144 218.291 84.3128 223.387 69.2172 230.563C54.6572 237.489 42.7388 237.37 37.4712 236.834V239.632H100.308V216.289Z" fill="#263238" stroke="#263238" stroke-linecap="round" stroke-linejoin="round"/>
<path d="M100.308 237.692H37.4712V239.637H100.308V237.692Z" fill="white" stroke="#263238" stroke-linecap="round" stroke-linejoin="round"/>
<path d="M72.1292 222.144C72.1292 222.785 71.9392 223.411 71.5832 223.944C71.2272 224.477 70.7213 224.892 70.1293 225.137C69.5373 225.382 68.886 225.446 68.2576 225.321C67.6291 225.196 67.0519 224.888 66.5988 224.435C66.1458 223.982 65.8372 223.404 65.7122 222.776C65.5872 222.148 65.6514 221.496 65.8966 220.904C66.1418 220.312 66.557 219.806 67.0897 219.45C67.6225 219.094 68.2488 218.904 68.8896 218.904C69.7488 218.904 70.5728 219.246 71.1803 219.853C71.7878 220.461 72.1292 221.285 72.1292 222.144Z" fill="white" stroke="#263238" stroke-linecap="round" stroke-linejoin="round"/>
<path d="M44.224 64.467H45.421V70.524H44.224V64.467ZM45.079 66.852H46.528V67.833H45.079V66.852ZM40.048 71.703H45.718V72.657H40.048V71.703ZM40.048 69.894H41.245V72.126H40.048V69.894ZM41.182 64.998C42.46 64.998 43.45 65.889 43.45 67.122C43.45 68.346 42.46 69.237 41.182 69.237C39.904 69.237 38.914 68.346 38.914 67.122C38.914 65.889 39.904 64.998 41.182 64.998ZM41.182 66.042C40.57 66.042 40.084 66.438 40.084 67.122C40.084 67.797 40.57 68.193 41.182 68.193C41.803 68.193 42.28 67.797 42.28 67.122C42.28 66.438 41.803 66.042 41.182 66.042ZM47.6253 64.89H48.8133V68.391H47.6253V64.89ZM47.6253 68.148H48.3003C49.7403 68.148 50.7393 68.112 51.8553 67.896L51.9903 68.85C50.8383 69.075 49.7943 69.12 48.3003 69.12H47.6253V68.148ZM52.9173 64.467H54.1143V69.462H52.9173V64.467ZM50.9373 65.205H53.2143V66.114H50.9373V65.205ZM50.9373 66.645H53.2143V67.554H50.9373V66.645ZM51.2883 69.57C53.0523 69.57 54.1413 70.173 54.1413 71.19C54.1413 72.216 53.0523 72.81 51.2883 72.81C49.5243 72.81 48.4353 72.216 48.4353 71.19C48.4353 70.173 49.5243 69.57 51.2883 69.57ZM51.2883 70.497C50.2083 70.497 49.6323 70.722 49.6323 71.19C49.6323 71.658 50.2083 71.883 51.2883 71.883C52.3773 71.883 52.9533 71.658 52.9533 71.19C52.9533 70.722 52.3773 70.497 51.2883 70.497ZM60.7646 64.467H61.9526V72.801H60.7646V64.467ZM61.6826 67.716H63.1586V68.715H61.6826V67.716ZM55.3826 65.7H60.2336V66.654H55.3826V65.7ZM57.8216 67.122C59.0366 67.122 59.9366 67.95 59.9366 69.111C59.9366 70.272 59.0366 71.1 57.8216 71.1C56.6066 71.1 55.7066 70.272 55.7066 69.111C55.7066 67.95 56.6066 67.122 57.8216 67.122ZM57.8216 68.094C57.2546 68.094 56.8496 68.472 56.8496 69.111C56.8496 69.75 57.2546 70.128 57.8216 70.128C58.3886 70.128 58.7936 69.75 58.7936 69.111C58.7936 68.472 58.3886 68.094 57.8216 68.094ZM57.2186 64.602H58.4156V66.06H57.2186V64.602ZM66.9829 67.266H68.3599V68.238H66.9829V67.266ZM65.2009 65.187H66.1189V66.591C66.1189 68.481 65.5969 70.326 64.2649 71.145L63.5449 70.245C64.7689 69.489 65.2009 68.004 65.2009 66.591V65.187ZM65.4619 65.187H66.3619V66.537C66.3619 67.896 66.7129 69.282 67.8469 70.02L67.1989 70.956C65.8759 70.137 65.4619 68.337 65.4619 66.537V65.187ZM69.7189 64.467H70.8619V72.801H69.7189V64.467ZM68.0269 64.593H69.1429V72.423H68.0269V64.593ZM73.6422 68.697H74.8302V71.037H73.6422V68.697ZM76.6662 68.697H77.8632V71.037H76.6662V68.697ZM71.9862 70.866H79.5282V71.838H71.9862V70.866ZM75.7482 64.872C77.5392 64.872 78.8622 65.754 78.8622 67.113C78.8622 68.472 77.5392 69.345 75.7482 69.345C73.9482 69.345 72.6342 68.472 72.6342 67.113C72.6342 65.754 73.9482 64.872 75.7482 64.872ZM75.7482 65.808C74.5872 65.808 73.8132 66.285 73.8132 67.113C73.8132 67.932 74.5872 68.418 75.7482 68.418C76.9092 68.418 77.6832 67.932 77.6832 67.113C77.6832 66.285 76.9092 65.808 75.7482 65.808ZM81.8225 69.804H80.5715L80.3465 65.574H82.0475L81.8225 69.804ZM80.3465 71.325C80.3465 71.031 80.4275 70.827 80.5895 70.713C80.7575 70.593 80.9585 70.533 81.1925 70.533C81.4205 70.533 81.6155 70.593 81.7775 70.713C81.9395 70.827 82.0205 71.031 82.0205 71.325C82.0205 71.601 81.9395 71.802 81.7775 71.928C81.6155 72.054 81.4205 72.117 81.1925 72.117C80.9585 72.117 80.7575 72.054 80.5895 71.928C80.4275 71.802 80.3465 71.601 80.3465 71.325Z" fill="#877ACE"/>
</svg>
